<svg fill="none" height="48" viewBox="0 0 665 145" width="130" xmlns="http://www.w3.org/2000/svg"><g><path d="M130.769 51.6917C128.149 52.9568 121.784 55.4919 120.849 55.6719C119.914 55.4919 113.549 52.9568 110.929 51.6917C108.309 50.4267 106.808 48.7966 106.063 47.3516C105.313 45.9065 105.128 42.2864 105.128 38.1263V23.4308H136.579V38.1263C136.579 42.2864 136.394 45.9016 135.644 47.3516C134.894 48.7966 133.399 50.4267 130.779 51.6917H130.769Z" fill="white"></path><path d="M135.919 95.8832C133.169 94.9232 126.879 92.2131 126.089 91.6781C125.554 90.8881 122.844 84.5979 121.884 81.8478C120.924 79.0977 121.019 76.8876 121.509 75.3376C122.004 73.7875 124.429 71.0974 127.369 68.1524L137.759 57.762L148.88 68.8824L160 80.0027L149.61 90.393C146.67 93.3331 143.98 95.7582 142.425 96.2532C140.874 96.7482 138.664 96.8382 135.914 95.8782L135.919 95.8832Z" fill="white"></path><path d="M108.314 130.769C107.049 128.149 104.514 121.784 104.333 120.849C104.514 119.914 107.049 113.549 108.314 110.929C109.579 108.308 111.209 106.808 112.654 106.063C114.099 105.313 117.719 105.128 121.879 105.128H136.575V120.854V136.579H121.879C117.719 136.579 114.104 136.394 112.654 135.644C111.209 134.894 109.579 133.399 108.314 130.779V130.769Z" fill="white"></path><path d="M64.1221 135.919C65.0822 133.169 67.7922 126.879 68.3273 126.089C69.1173 125.554 75.4075 122.844 78.1576 121.884C80.9077 120.924 83.1177 121.019 84.6678 121.509C86.2178 122.004 88.9079 124.429 91.853 127.369L102.243 137.759L91.123 148.88L80.0026 160L69.6123 149.61C66.6722 146.67 64.2471 143.98 63.7521 142.425C63.2571 140.874 63.1671 138.664 64.1271 135.914L64.1221 135.919Z" fill="white"></path><path d="M29.236 108.314C31.856 107.049 38.2212 104.513 39.1563 104.333C40.0913 104.513 46.4565 107.049 49.0766 108.314C51.6967 109.579 53.1967 111.209 53.9417 112.654C54.6918 114.099 54.8768 117.719 54.8768 121.879V136.574H39.1513H23.4258V121.879C23.4258 117.719 23.6108 114.104 24.3608 112.654C25.1108 111.209 26.6059 109.579 29.226 108.314H29.236Z" fill="white"></path><path d="M51.6915 29.2361C52.9566 31.8562 55.4917 38.2214 55.6717 39.1565C55.4917 40.0915 52.9566 46.4567 51.6915 49.0768C50.4265 51.6969 48.7965 53.1969 47.3514 53.9419C45.9064 54.6919 42.2863 54.877 38.1261 54.877H23.4307V39.1515V23.426H38.1261C42.2863 23.426 45.9014 23.611 47.3514 24.361C48.7965 25.111 50.4265 26.6061 51.6915 29.2261V29.2361Z" fill="white"></path><path d="M95.8829 24.0858C94.9229 26.8359 92.2128 33.1261 91.6778 33.9161C90.8878 34.4511 84.5976 37.1612 81.8475 38.1213C79.0974 39.0813 76.8873 38.9863 75.3373 38.4963C73.7872 38.0013 71.0971 35.5762 68.152 32.6361L57.7617 22.2458L68.8821 11.1254L80.0024 6.10352e-05L90.3927 10.3904C93.3328 13.3305 95.7579 16.0206 96.2529 17.5756C96.7479 19.1257 96.8379 21.3357 95.8779 24.0858H95.8829Z" fill="white"></path><path d="M24.0858 64.1223C26.8358 65.0823 33.126 67.7924 33.9161 68.3274C34.4511 69.1174 37.1612 75.4076 38.1212 78.1577C39.0812 80.9078 38.9862 83.1179 38.4962 84.6679C38.0012 86.2179 35.5761 88.908 32.636 91.8531L22.2457 102.243L11.1253 91.1231L0 80.0028L10.3903 69.6124C13.3304 66.6723 16.0205 64.2473 17.5756 63.7522C19.1256 63.2572 21.3357 63.1672 24.0858 64.1273V64.1223Z" fill="white"></path><path d="M483.027 23.3333H453.568L407.085 136.667H438.187L445.842 113.058H490.747L498.402 136.667H529.504L483.027 23.3333ZM452.799 91.3383L468.3 45.4438L484.303 91.3383H452.799Z" fill="white"></path><path d="M223.526 136.667H193.333L196.415 80L193.333 23.3333H223.526L220.274 80L223.526 136.667Z" fill="white"></path><path d="M354.043 23.3333L321.744 103.062L289.446 23.3333H249.517V136.667H279.725L273.211 46.9419L309.505 136.667H333.983L370.278 46.9419L363.759 136.667H393.967V23.3333H354.043Z" fill="white"></path><path d="M654.283 23.3333H624.186L630.664 113.053L579.063 23.3333H541.275V136.667H571.372L564.894 46.9419L616.49 136.667H654.283V23.3333Z" fill="white"></path></g><defs><clipPath id="clip0_12695_19642"><rect fill="white" height="145" width="665"></rect></clipPath></defs></svg>