<?xml version="1.0" encoding="UTF-8" standalone="no"?>
<!DOCTYPE svg PUBLIC "-//W3C//DTD SVG 1.1//EN" "http://www.w3.org/Graphics/SVG/1.1/DTD/svg11.dtd">
<svg width="100%" height="100%" viewBox="0 0 6034 1917" version="1.1" xmlns="http://www.w3.org/2000/svg" xmlns:xlink="http://www.w3.org/1999/xlink" xml:space="preserve" xmlns:serif="http://www.serif.com/" style="fill-rule:evenodd;clip-rule:evenodd;stroke-linejoin:round;stroke-miterlimit:2;">
    <g transform="matrix(4.166667,0,0,4.166667,0,0)">
        <circle cx="230" cy="230" r="230" style="fill:rgb(1,28,44);"/>
    </g>
    <g transform="matrix(4.166667,0,0,4.166667,0,0)">
        <path d="M118.014,29.038L223.473,134.497L135.544,222.426L29.786,116.667C28.07,119.691 26.421,122.758 24.841,125.865L128.473,229.497L24.505,333.465C26.077,336.58 27.717,339.655 29.425,342.687L135.544,236.568L223.973,324.997L118.015,430.955C121.056,432.654 124.141,434.285 127.265,435.847L154.044,409.068L203.461,458.485C208.543,459.068 213.674,459.486 218.851,459.732L161.115,401.997L231.044,332.068L300.473,401.497L242.298,459.672C247.506,459.397 252.669,458.949 257.779,458.333L307.544,408.568L334.105,435.129C337.212,433.548 340.278,431.899 343.302,430.184L238.115,324.997L326.044,237.068L430.932,341.955C432.63,338.914 434.261,335.83 435.823,332.705L333.115,229.997L435.823,127.289C434.261,124.164 432.63,121.08 430.932,118.038L326.044,222.926L237.615,134.497L342.664,29.448C339.632,27.741 336.557,26.1 333.442,24.528L307.044,50.926L257.779,1.66C252.668,1.044 247.506,0.596 242.297,0.321L299.973,57.997L230.544,127.426L161.115,57.997L218.852,0.261C213.675,0.507 208.543,0.925 203.462,1.508L154.044,50.926L127.265,24.146C124.14,25.709 121.056,27.34 118.014,29.038ZM142.615,229.497L180.5,179L230.544,141.568L318.973,229.997L231.044,317.926L142.615,229.497Z" style="fill:rgb(17,67,90);"/>
    </g>
    <g transform="matrix(4.166667,0,0,4.166667,0,0)">
        <path d="M238.311,46.79C239.809,44.783 240.905,42.475 240.905,40.02C240.905,33.267 232.612,27.629 230.49,26.297C230.188,26.108 229.813,26.108 229.511,26.297C227.389,27.629 219.096,33.267 219.096,40.02C219.096,42.48 220.197,44.792 221.699,46.803C220.996,47.463 220.301,48.15 219.634,48.845C217.627,47.347 215.32,46.251 212.865,46.251C206.112,46.251 200.474,54.545 199.142,56.666C198.953,56.968 198.953,57.344 199.142,57.646C200.474,59.767 206.112,68.061 212.865,68.061C215.32,68.061 217.629,66.964 219.636,65.466C220.302,66.162 220.995,66.85 221.697,67.512C220.196,69.521 219.096,71.833 219.096,74.292C219.096,81.045 227.389,86.683 229.511,88.014C229.813,88.204 230.188,88.204 230.49,88.014C232.612,86.683 240.905,81.045 240.905,74.292C240.905,71.837 239.809,69.528 238.311,67.521C239.005,66.854 239.695,66.161 240.361,65.463C242.37,66.962 244.679,68.061 247.137,68.061C253.89,68.061 259.528,59.767 260.859,57.646C261.049,57.344 261.049,56.968 260.859,56.666C259.528,54.545 253.89,46.251 247.137,46.251C244.679,46.251 242.369,47.35 240.361,48.849C239.695,48.151 239.006,47.458 238.311,46.79Z" style="fill:white;fill-rule:nonzero;"/>
    </g>
    <g transform="matrix(4.166667,0,0,4.166667,0,0)">
        <path d="M230.49,26.297L235.807,17.828C237.175,18.687 240.543,20.926 243.684,24.177C246.089,26.665 249.526,30.937 250.584,36.573C256.219,37.63 260.492,41.067 262.98,43.472C266.231,46.614 268.47,49.981 269.329,51.35L260.859,56.666C259.701,54.82 255.282,48.301 249.705,46.639C248.872,46.391 248.014,46.251 247.137,46.251C244.825,46.251 242.643,47.224 240.72,48.588C240.599,48.673 240.48,48.761 240.361,48.849C239.695,48.151 239.006,47.458 238.311,46.79C238.397,46.676 238.481,46.56 238.564,46.443C239.931,44.519 240.905,42.335 240.905,40.02C240.905,39.143 240.766,38.285 240.517,37.452C238.855,31.875 232.336,27.456 230.49,26.297ZM221.432,46.436C220.068,44.513 219.096,42.332 219.096,40.02C219.096,39.143 219.236,38.284 219.484,37.452C221.146,31.875 227.665,27.456 229.511,26.297C229.813,26.108 230.188,26.108 230.49,26.297L235.807,17.828C232.254,15.598 227.747,15.598 224.194,17.828C222.826,18.687 219.458,20.926 216.317,24.177C213.912,26.665 210.475,30.937 209.417,36.573C203.782,37.63 199.51,41.067 197.021,43.472C193.77,46.614 191.532,49.981 190.672,51.35L198.403,56.203L190.672,51.35C188.443,54.902 188.443,59.41 190.672,62.962C191.532,64.331 193.77,67.698 197.021,70.84C199.51,73.245 203.782,76.682 209.417,77.739C210.475,83.375 213.912,87.647 216.317,90.135C219.458,93.386 222.826,95.625 224.194,96.484C227.747,98.714 232.254,98.714 235.807,96.484L230.49,88.014L235.807,96.484C237.175,95.625 240.543,93.386 243.684,90.135C246.089,87.647 249.526,83.375 250.584,77.739C256.219,76.682 260.492,73.245 262.98,70.84C266.231,67.698 268.47,64.331 269.329,62.962L260.859,57.646L269.329,62.962C271.559,59.41 271.559,54.902 269.329,51.35L260.859,56.666C261.049,56.968 261.049,57.344 260.859,57.646C259.701,59.492 255.282,66.011 249.705,67.673C248.872,67.921 248.014,68.061 247.137,68.061C244.824,68.061 242.643,67.088 240.72,65.724C240.599,65.638 240.48,65.551 240.361,65.463C239.695,66.161 239.005,66.854 238.311,67.521C238.397,67.636 238.481,67.752 238.564,67.869C239.931,69.793 240.905,71.977 240.905,74.292C240.905,75.169 240.766,76.027 240.517,76.86C238.855,82.437 232.336,86.856 230.49,88.014C230.188,88.204 229.813,88.204 229.511,88.014C227.665,86.856 221.146,82.437 219.484,76.86C219.236,76.027 219.096,75.169 219.096,74.292C219.096,71.979 220.069,69.797 221.433,67.874C221.52,67.752 221.608,67.631 221.697,67.512C220.995,66.85 220.302,66.162 219.636,65.466C219.523,65.55 219.409,65.634 219.293,65.716C217.368,67.084 215.182,68.061 212.865,68.061C211.987,68.061 211.129,67.921 210.297,67.673C204.72,66.01 200.301,59.492 199.142,57.646C198.953,57.344 198.953,56.968 199.142,56.666C200.301,54.82 204.72,48.301 210.297,46.639C211.129,46.391 211.987,46.251 212.865,46.251C215.183,46.251 217.37,47.229 219.296,48.598C219.41,48.679 219.523,48.761 219.634,48.845C220.301,48.15 220.996,47.463 221.699,46.803C221.608,46.681 221.519,46.559 221.432,46.436Z" style="fill:rgb(31,98,126);"/>
    </g>
    <g transform="matrix(4.166667,0,0,4.166667,0,0)">
        <path d="M238.311,46.79C239.809,44.783 240.905,42.475 240.905,40.02C240.905,33.267 232.612,27.629 230.49,26.297C230.188,26.108 229.813,26.108 229.511,26.297C227.389,27.629 219.096,33.267 219.096,40.02C219.096,42.48 220.197,44.792 221.699,46.803C220.996,47.463 220.301,48.15 219.634,48.845C217.627,47.347 215.32,46.251 212.865,46.251C206.112,46.251 200.474,54.545 199.142,56.666C198.953,56.968 198.953,57.344 199.142,57.646C200.474,59.767 206.112,68.061 212.865,68.061C215.32,68.061 217.629,66.964 219.636,65.466C220.302,66.162 220.995,66.85 221.697,67.512C220.196,69.521 219.096,71.833 219.096,74.292C219.096,81.045 227.389,86.683 229.511,88.014C229.813,88.204 230.188,88.204 230.49,88.014C232.612,86.683 240.905,81.045 240.905,74.292C240.905,71.837 239.809,69.528 238.311,67.521C239.005,66.854 239.695,66.161 240.361,65.463C242.37,66.962 244.679,68.061 247.137,68.061C253.89,68.061 259.528,59.767 260.859,57.646C261.049,57.344 261.049,56.968 260.859,56.666C259.528,54.545 253.89,46.251 247.137,46.251C244.679,46.251 242.369,47.35 240.361,48.849C239.695,48.151 239.006,47.458 238.311,46.79Z" style="fill:white;fill-rule:nonzero;"/>
    </g>
    <g transform="matrix(4.166667,0,0,4.166667,0,0)">
        <circle cx="230.001" cy="57.156" r="4.673" style="fill:rgb(31,98,126);"/>
    </g>
    <g transform="matrix(4.166667,0,0,4.166667,0,0)">
        <path d="M238.311,392.79C239.809,390.783 240.905,388.475 240.905,386.02C240.905,379.267 232.612,373.629 230.49,372.297C230.188,372.108 229.813,372.108 229.511,372.297C227.389,373.629 219.096,379.267 219.096,386.02C219.096,388.48 220.197,390.792 221.699,392.802C220.996,393.463 220.301,394.15 219.634,394.845C217.627,393.347 215.32,392.251 212.865,392.251C206.112,392.251 200.474,400.545 199.142,402.666C198.953,402.968 198.953,403.344 199.142,403.646C200.474,405.767 206.112,414.061 212.865,414.061C215.32,414.061 217.629,412.964 219.636,411.466C220.302,412.162 220.995,412.85 221.697,413.512C220.196,415.521 219.096,417.833 219.096,420.292C219.096,427.045 227.389,432.683 229.511,434.015C229.813,434.204 230.188,434.204 230.49,434.015C232.612,432.683 240.905,427.045 240.905,420.292C240.905,417.837 239.809,415.528 238.311,413.521C239.005,412.854 239.695,412.161 240.361,411.463C242.37,412.962 244.679,414.061 247.137,414.061C253.89,414.061 259.528,405.767 260.859,403.646C261.049,403.344 261.049,402.968 260.859,402.666C259.528,400.545 253.89,392.251 247.137,392.251C244.679,392.251 242.369,393.35 240.361,394.849C239.695,394.151 239.006,393.458 238.311,392.79Z" style="fill:white;fill-rule:nonzero;"/>
    </g>
    <g transform="matrix(4.166667,0,0,4.166667,0,0)">
        <path d="M230.49,372.297L235.807,363.828C237.175,364.687 240.543,366.926 243.684,370.177C246.089,372.665 249.526,376.937 250.584,382.573C256.219,383.63 260.492,387.067 262.98,389.472C266.231,392.614 268.47,395.981 269.329,397.35L260.859,402.666C259.701,400.82 255.282,394.301 249.705,392.639C248.872,392.391 248.014,392.251 247.137,392.251C244.825,392.251 242.643,393.224 240.72,394.588C240.599,394.673 240.48,394.761 240.361,394.849C239.695,394.151 239.006,393.458 238.311,392.79C238.397,392.676 238.481,392.56 238.564,392.443C239.931,390.519 240.905,388.335 240.905,386.02C240.905,385.143 240.766,384.285 240.517,383.452C238.855,377.875 232.336,373.456 230.49,372.297ZM221.432,392.436C220.068,390.513 219.096,388.332 219.096,386.02C219.096,385.143 219.236,384.284 219.484,383.452C221.146,377.875 227.665,373.456 229.511,372.297C229.813,372.108 230.188,372.108 230.49,372.297L235.807,363.828C232.254,361.598 227.747,361.598 224.194,363.828C222.826,364.687 219.458,366.926 216.317,370.177C213.912,372.665 210.475,376.937 209.417,382.573C203.782,383.63 199.51,387.067 197.021,389.472C193.77,392.614 191.532,395.981 190.672,397.35L198.403,402.203L190.672,397.35C188.443,400.902 188.443,405.41 190.672,408.962C191.532,410.331 193.77,413.698 197.021,416.84C199.51,419.245 203.782,422.682 209.417,423.739C210.475,429.375 213.912,433.647 216.317,436.135C219.458,439.386 222.826,441.625 224.194,442.484C227.747,444.714 232.254,444.714 235.807,442.484L230.49,434.015L235.807,442.484C237.175,441.625 240.543,439.386 243.684,436.135C246.089,433.647 249.526,429.375 250.584,423.739C256.219,422.682 260.492,419.245 262.98,416.84C266.231,413.698 268.47,410.331 269.329,408.962L260.859,403.646L269.329,408.962C271.559,405.41 271.559,400.902 269.329,397.35L260.859,402.666C261.049,402.968 261.049,403.344 260.859,403.646C259.701,405.492 255.282,412.011 249.705,413.673C248.872,413.921 248.014,414.061 247.137,414.061C244.824,414.061 242.643,413.088 240.72,411.724C240.599,411.638 240.48,411.551 240.361,411.463C239.695,412.161 239.005,412.854 238.311,413.521C238.397,413.636 238.481,413.752 238.564,413.869C239.931,415.793 240.905,417.977 240.905,420.292C240.905,421.169 240.766,422.027 240.517,422.86C238.855,428.437 232.336,432.856 230.49,434.015C230.188,434.204 229.813,434.204 229.511,434.015C227.665,432.856 221.146,428.437 219.484,422.86C219.236,422.027 219.096,421.169 219.096,420.292C219.096,417.979 220.069,415.797 221.433,413.874C221.52,413.752 221.608,413.631 221.697,413.512C220.995,412.85 220.302,412.162 219.636,411.466C219.523,411.55 219.409,411.634 219.293,411.716C217.368,413.084 215.182,414.061 212.865,414.061C211.987,414.061 211.129,413.921 210.297,413.673C204.72,412.01 200.301,405.492 199.142,403.646C198.953,403.344 198.953,402.968 199.142,402.666C200.301,400.82 204.72,394.301 210.297,392.639C211.129,392.391 211.987,392.251 212.865,392.251C215.183,392.251 217.37,393.229 219.296,394.598C219.41,394.679 219.523,394.761 219.634,394.845C220.301,394.15 220.996,393.463 221.699,392.802C221.608,392.681 221.519,392.559 221.432,392.436Z" style="fill:rgb(31,98,126);"/>
    </g>
    <g transform="matrix(4.166667,0,0,4.166667,0,0)">
        <path d="M238.311,392.79C239.809,390.783 240.905,388.475 240.905,386.02C240.905,379.267 232.612,373.629 230.49,372.297C230.188,372.108 229.813,372.108 229.511,372.297C227.389,373.629 219.096,379.267 219.096,386.02C219.096,388.48 220.197,390.792 221.699,392.802C220.996,393.463 220.301,394.15 219.634,394.845C217.627,393.347 215.32,392.251 212.865,392.251C206.112,392.251 200.474,400.545 199.142,402.666C198.953,402.968 198.953,403.344 199.142,403.646C200.474,405.767 206.112,414.061 212.865,414.061C215.32,414.061 217.629,412.964 219.636,411.466C220.302,412.162 220.995,412.85 221.697,413.512C220.196,415.521 219.096,417.833 219.096,420.292C219.096,427.045 227.389,432.683 229.511,434.015C229.813,434.204 230.188,434.204 230.49,434.015C232.612,432.683 240.905,427.045 240.905,420.292C240.905,417.837 239.809,415.528 238.311,413.521C239.005,412.854 239.695,412.161 240.361,411.463C242.37,412.962 244.679,414.061 247.137,414.061C253.89,414.061 259.528,405.767 260.859,403.646C261.049,403.344 261.049,402.968 260.859,402.666C259.528,400.545 253.89,392.251 247.137,392.251C244.679,392.251 242.369,393.35 240.361,394.849C239.695,394.151 239.006,393.458 238.311,392.79Z" style="fill:white;fill-rule:nonzero;"/>
    </g>
    <g transform="matrix(4.166667,0,0,4.166667,0,0)">
        <circle cx="230.001" cy="403.156" r="4.673" style="fill:rgb(31,98,126);"/>
    </g>
    <g transform="matrix(4.166667,0,0,4.166667,0,0)">
        <path d="M355.864,92.043C355.984,91.099 356.05,90.135 356.05,89.155C356.05,77.642 347,68.31 347,68.31C347,68.31 337.951,77.642 337.951,89.155C337.951,90.148 338.019,91.125 338.142,92.081C331.39,86.171 322.3,85.312 322.3,85.312C322.3,85.312 323.158,94.388 329.057,101.139C328.109,101.018 327.14,100.951 326.155,100.951C314.642,100.951 305.31,110 305.31,110C305.31,110 314.642,119.05 326.155,119.05C327.136,119.05 328.102,118.984 329.047,118.864C323.193,125.608 322.339,134.634 322.339,134.634C322.339,134.634 331.396,133.778 338.145,127.896C338.02,128.86 337.951,129.845 337.951,130.846C337.951,142.359 347,151.691 347,151.691C347,151.691 356.05,142.359 356.05,130.846C356.05,129.86 355.983,128.889 355.862,127.939C362.609,133.817 371.662,134.673 371.662,134.673C371.662,134.673 370.805,125.608 364.916,118.859C365.873,118.982 366.851,119.05 367.846,119.05C379.359,119.05 388.691,110 388.691,110C388.691,110 379.359,100.951 367.846,100.951C366.846,100.951 365.862,101.02 364.9,101.144C370.803,94.393 371.662,85.312 371.662,85.312C371.662,85.312 362.611,86.167 355.864,92.043Z" style="fill:white;fill-rule:nonzero;"/>
    </g>
    <g transform="matrix(4.166667,0,0,4.166667,0,0)">
        <path d="M341.5,76.14C344.035,71.367 347,68.309 347,68.309C347,68.309 349.964,71.367 352.5,76.14C353.349,77.738 354.149,79.529 354.775,81.461C355.545,83.842 356.049,86.437 356.049,89.155C356.049,90.135 355.984,91.099 355.864,92.043C357.175,90.9 358.574,89.948 359.976,89.155C360.493,88.862 361.01,88.592 361.523,88.341C362.802,87.717 364.058,87.217 365.227,86.818C368.868,85.575 371.661,85.311 371.661,85.311C371.661,85.311 371.396,88.118 370.146,91.77C369.749,92.932 369.252,94.179 368.632,95.449C368.389,95.947 368.127,96.447 367.845,96.948C367.04,98.379 366.068,99.807 364.899,101.144C365.862,101.019 366.845,100.951 367.845,100.951C370.549,100.951 373.132,101.45 375.502,102.213C377.449,102.84 379.252,103.646 380.86,104.5C385.633,107.035 388.691,110 388.691,110C388.691,110 385.633,112.965 380.86,115.5C379.254,116.353 377.454,117.157 375.51,117.784C373.138,118.549 370.552,119.049 367.845,119.049C366.851,119.049 365.873,118.982 364.916,118.858C366.077,120.19 367.043,121.611 367.845,123.036C368.127,123.536 368.389,124.037 368.632,124.535C369.255,125.81 369.753,127.063 370.152,128.23C371.397,131.874 371.662,134.673 371.662,134.673C371.662,134.673 368.868,134.409 365.228,133.166C364.059,132.767 362.803,132.267 361.523,131.643C361.019,131.397 360.512,131.132 360.005,130.845C358.592,130.048 357.182,129.09 355.861,127.939C355.983,128.889 356.049,129.859 356.049,130.845C356.049,133.557 355.547,136.149 354.779,138.525C354.153,140.463 353.351,142.258 352.5,143.86C349.964,148.633 347,151.691 347,151.691C347,151.691 344.035,148.633 341.5,143.86C340.644,142.249 339.838,140.443 339.21,138.493C338.448,136.125 337.951,133.545 337.951,130.845C337.951,129.844 338.019,128.859 338.144,127.896C336.8,129.067 335.364,130.04 333.926,130.845C333.442,131.117 332.958,131.369 332.477,131.604C331.196,132.229 329.939,132.729 328.769,133.129C325.13,134.37 322.339,134.634 322.339,134.634C322.339,134.634 322.602,131.855 323.836,128.229C324.236,127.052 324.739,125.785 325.369,124.496C325.611,123.998 325.873,123.498 326.155,122.998C326.948,121.589 327.902,120.182 329.047,118.863C328.101,118.983 327.136,119.049 326.155,119.049C323.441,119.049 320.848,118.546 318.471,117.778C316.535,117.152 314.741,116.35 313.14,115.5C308.367,112.965 305.309,110 305.309,110C305.309,110 308.367,107.035 313.14,104.5C314.739,103.651 316.531,102.849 318.465,102.224C320.844,101.454 323.439,100.951 326.155,100.951C327.139,100.951 328.108,101.017 329.057,101.138C327.909,99.824 326.952,98.423 326.155,97.017C325.858,96.493 325.583,95.969 325.329,95.449C324.71,94.18 324.213,92.934 323.816,91.773C322.565,88.119 322.3,85.311 322.3,85.311C322.3,85.311 325.113,85.577 328.772,86.831C329.93,87.228 331.173,87.723 332.438,88.341C332.951,88.592 333.468,88.862 333.985,89.155C335.403,89.957 336.817,90.922 338.141,92.081C338.018,91.125 337.951,90.148 337.951,89.155C337.951,86.445 338.452,83.856 339.219,81.481C339.845,79.541 340.648,77.744 341.5,76.14ZM322.3,85.311L313.076,86.183L312.022,75.034L323.172,76.088L322.3,85.311ZM330.711,77.717C331.817,74.561 333.224,71.827 334.53,69.65C335.922,67.329 337.311,65.454 338.366,64.141C338.898,63.481 339.353,62.952 339.694,62.569C339.865,62.377 340.008,62.221 340.118,62.103C340.174,62.043 340.221,61.993 340.259,61.953L340.311,61.899L340.331,61.878L340.34,61.868L340.345,61.864C340.347,61.862 340.348,61.86 347,68.309C353.651,61.86 353.653,61.862 353.655,61.864L353.669,61.878L353.689,61.899L353.74,61.953C353.779,61.993 353.826,62.043 353.881,62.103C353.992,62.221 354.135,62.377 354.306,62.569C354.647,62.952 355.102,63.481 355.633,64.141C356.689,65.454 358.078,67.329 359.47,69.65C360.774,71.825 362.179,74.554 363.285,77.706C363.387,77.674 363.487,77.643 363.587,77.613C365.548,77.014 367.251,76.644 368.498,76.419C369.124,76.306 369.643,76.228 370.031,76.177C370.225,76.151 370.387,76.131 370.515,76.117C370.578,76.109 370.633,76.103 370.679,76.099L370.741,76.092L370.784,76.088C370.787,76.088 370.789,76.088 371.661,85.311C380.885,86.183 380.885,86.186 380.884,86.188L380.884,86.194L380.883,86.206L380.88,86.232L380.874,86.294C380.869,86.34 380.863,86.395 380.856,86.459C380.842,86.586 380.822,86.749 380.796,86.944C380.744,87.333 380.666,87.854 380.552,88.481C380.327,89.731 379.955,91.44 379.354,93.406C379.324,93.504 379.293,93.603 379.261,93.704C382.427,94.811 385.168,96.221 387.35,97.53C389.671,98.922 391.546,100.311 392.859,101.367C393.519,101.898 394.048,102.353 394.431,102.694C394.623,102.865 394.779,103.008 394.897,103.119C394.957,103.174 395.007,103.221 395.047,103.26L395.101,103.311L395.122,103.331L395.136,103.345C395.138,103.347 395.14,103.349 388.691,110C395.14,116.651 395.138,116.653 395.136,116.655L395.122,116.669L395.101,116.689L395.047,116.741C395.026,116.761 395.003,116.783 394.976,116.808C394.952,116.83 394.926,116.855 394.897,116.881C394.779,116.992 394.623,117.135 394.431,117.306C394.048,117.647 393.519,118.102 392.859,118.633C391.546,119.689 389.671,121.078 387.35,122.47C385.169,123.778 382.43,125.188 379.266,126.295C379.297,126.394 379.327,126.492 379.357,126.589C379.957,128.552 380.328,130.258 380.553,131.506C380.666,132.133 380.744,132.653 380.796,133.041C380.822,133.236 380.842,133.398 380.856,133.526C380.861,133.563 380.864,133.598 380.868,133.63C380.87,133.652 380.872,133.672 380.874,133.69L380.88,133.752L380.883,133.778L380.884,133.79L380.885,133.795C380.885,133.798 380.885,133.801 371.662,134.673C370.79,143.896 370.787,143.896 370.784,143.896L370.767,143.894L370.741,143.892L370.679,143.885C370.655,143.883 370.628,143.88 370.598,143.877C370.572,143.874 370.544,143.871 370.515,143.867C370.387,143.853 370.225,143.833 370.031,143.807C369.643,143.755 369.123,143.678 368.497,143.565C367.251,143.34 365.547,142.97 363.586,142.371C363.488,142.341 363.39,142.31 363.29,142.279C362.184,145.437 360.776,148.172 359.47,150.35C358.078,152.671 356.689,154.546 355.633,155.859C355.102,156.519 354.647,157.048 354.306,157.431C354.135,157.623 353.992,157.779 353.881,157.897C353.826,157.957 353.779,158.007 353.74,158.047L353.689,158.101L353.669,158.122L353.655,158.136C353.653,158.138 353.651,158.14 347,151.691C340.348,158.14 340.347,158.138 340.345,158.136L340.331,158.122L340.311,158.101L340.259,158.047C340.221,158.007 340.174,157.957 340.118,157.897C340.008,157.779 339.865,157.623 339.694,157.431C339.353,157.048 338.898,156.519 338.366,155.859C337.311,154.546 335.922,152.671 334.53,150.35C333.219,148.164 331.806,145.417 330.697,142.244C330.603,142.274 330.51,142.303 330.417,142.331C328.456,142.93 326.751,143.301 325.504,143.526C324.878,143.639 324.358,143.716 323.97,143.768C323.775,143.794 323.613,143.814 323.486,143.828C323.422,143.836 323.367,143.842 323.321,143.846L323.259,143.853L323.233,143.855L323.216,143.857C323.213,143.857 323.211,143.857 322.339,134.634C313.115,133.762 313.116,133.759 313.116,133.756L313.117,133.739L313.12,133.714L313.126,133.652C313.131,133.606 313.137,133.551 313.144,133.487C313.158,133.36 313.178,133.199 313.204,133.005C313.256,132.617 313.333,132.1 313.446,131.475C313.67,130.232 314.039,128.532 314.635,126.575C314.664,126.482 314.693,126.387 314.723,126.291C311.564,125.185 308.829,123.777 306.65,122.47C304.329,121.078 302.454,119.689 301.141,118.633C300.481,118.102 299.952,117.647 299.569,117.306C299.377,117.135 299.221,116.992 299.103,116.881C299.043,116.826 298.993,116.779 298.953,116.741L298.899,116.689L298.878,116.669L298.868,116.66L298.864,116.655C298.862,116.653 298.86,116.651 305.309,110C298.86,103.349 298.862,103.347 298.864,103.345L298.878,103.331L298.899,103.311L298.953,103.26C298.993,103.221 299.043,103.174 299.103,103.119C299.221,103.008 299.377,102.865 299.569,102.694C299.952,102.353 300.481,101.898 301.141,101.367C302.454,100.311 304.329,98.922 306.65,97.53C308.824,96.226 311.553,94.821 314.703,93.716C314.67,93.61 314.638,93.506 314.606,93.402C314.006,91.438 313.634,89.73 313.409,88.48C313.295,87.853 313.217,87.332 313.165,86.944C313.139,86.749 313.119,86.586 313.105,86.459C313.098,86.395 313.092,86.34 313.087,86.294L313.081,86.231L313.078,86.206L313.077,86.188C313.076,86.186 313.076,86.183 322.3,85.311C323.172,76.088 323.174,76.088 323.177,76.088L323.194,76.09L323.22,76.092L323.282,76.099C323.328,76.103 323.383,76.109 323.447,76.117C323.575,76.131 323.738,76.151 323.933,76.177C324.322,76.229 324.843,76.307 325.472,76.421C326.722,76.646 328.432,77.019 330.399,77.62C330.502,77.652 330.606,77.684 330.711,77.717ZM305.309,110L298.86,116.651L292,110L298.86,103.349L305.309,110ZM322.339,134.634L323.211,143.857L312.061,144.911L313.115,133.762L322.339,134.634ZM353.688,145.28C353.691,145.283 353.691,145.283 353.688,145.279L353.688,145.28ZM347,151.691L353.651,158.14L347,165L340.348,158.14L347,151.691ZM371.662,134.673L380.885,133.801L381.939,144.95L370.79,143.896L371.662,134.673ZM388.691,110L395.14,103.349L402,110L395.14,116.651L388.691,110ZM371.661,85.311L370.789,76.088L381.939,75.034L380.885,86.183L371.661,85.311ZM347,68.309L340.348,61.86L347,55L353.651,61.86L347,68.309Z" style="fill:white;"/>
    </g>
    <g transform="matrix(4.166667,0,0,4.166667,0,0)">
        <path d="M355.864,92.043C355.984,91.099 356.05,90.135 356.05,89.155C356.05,77.642 347,68.31 347,68.31C347,68.31 337.951,77.642 337.951,89.155C337.951,90.148 338.019,91.125 338.142,92.081C331.39,86.171 322.3,85.312 322.3,85.312C322.3,85.312 323.158,94.388 329.057,101.139C328.109,101.018 327.14,100.951 326.155,100.951C314.642,100.951 305.31,110 305.31,110C305.31,110 314.642,119.05 326.155,119.05C327.136,119.05 328.102,118.984 329.047,118.864C323.193,125.608 322.339,134.634 322.339,134.634C322.339,134.634 331.396,133.778 338.145,127.896C338.02,128.86 337.951,129.845 337.951,130.846C337.951,142.359 347,151.691 347,151.691C347,151.691 356.05,142.359 356.05,130.846C356.05,129.86 355.983,128.889 355.862,127.939C362.609,133.817 371.662,134.673 371.662,134.673C371.662,134.673 370.805,125.608 364.916,118.859C365.873,118.982 366.851,119.05 367.846,119.05C379.359,119.05 388.691,110 388.691,110C388.691,110 379.359,100.951 367.846,100.951C366.846,100.951 365.862,101.02 364.9,101.144C370.803,94.393 371.662,85.312 371.662,85.312C371.662,85.312 362.611,86.167 355.864,92.043Z" style="fill:rgb(31,98,126);fill-rule:nonzero;"/>
    </g>
    <g transform="matrix(2.946278,-2.946278,2.946278,2.946278,87.670883,1128.322901)">
        <rect x="337.402" y="110" width="13.574" height="13.574" style="fill:white;"/>
    </g>
    <g transform="matrix(4.166667,0,0,4.166667,0,0)">
        <path d="M355.864,330.043C355.984,329.099 356.05,328.135 356.05,327.155C356.05,315.642 347,306.31 347,306.31C347,306.31 337.951,315.642 337.951,327.155C337.951,328.148 338.019,329.125 338.142,330.081C331.39,324.171 322.3,323.312 322.3,323.312C322.3,323.312 323.158,332.388 329.057,339.139C328.109,339.018 327.14,338.951 326.155,338.951C314.642,338.951 305.31,348 305.31,348C305.31,348 314.642,357.05 326.155,357.05C327.136,357.05 328.102,356.984 329.047,356.864C323.193,363.608 322.339,372.634 322.339,372.634C322.339,372.634 331.396,371.778 338.145,365.896C338.02,366.86 337.951,367.845 337.951,368.846C337.951,380.359 347,389.691 347,389.691C347,389.691 356.05,380.359 356.05,368.846C356.05,367.86 355.983,366.889 355.862,365.939C362.609,371.817 371.662,372.673 371.662,372.673C371.662,372.673 370.805,363.608 364.916,356.859C365.873,356.982 366.851,357.05 367.846,357.05C379.359,357.05 388.691,348 388.691,348C388.691,348 379.359,338.951 367.846,338.951C366.846,338.951 365.862,339.02 364.9,339.144C370.803,332.393 371.662,323.312 371.662,323.312C371.662,323.312 362.611,324.167 355.864,330.043Z" style="fill:white;fill-rule:nonzero;"/>
    </g>
    <g transform="matrix(4.166667,0,0,4.166667,0,0)">
        <path d="M341.5,314.14C344.035,309.367 347,306.309 347,306.309C347,306.309 349.964,309.367 352.5,314.14C353.349,315.738 354.149,317.529 354.775,319.461C355.545,321.842 356.049,324.437 356.049,327.155C356.049,328.135 355.984,329.099 355.864,330.043C357.175,328.901 358.574,327.948 359.976,327.155C360.493,326.862 361.01,326.592 361.523,326.341C362.802,325.717 364.058,325.217 365.227,324.818C368.868,323.575 371.661,323.311 371.661,323.311C371.661,323.311 371.396,326.118 370.146,329.77C369.749,330.932 369.252,332.179 368.632,333.449C368.389,333.947 368.127,334.447 367.845,334.948C367.04,336.379 366.068,337.807 364.899,339.144C365.862,339.019 366.845,338.951 367.845,338.951C370.549,338.951 373.132,339.45 375.502,340.213C377.449,340.84 379.252,341.646 380.86,342.5C385.633,345.035 388.691,348 388.691,348C388.691,348 385.633,350.965 380.86,353.5C379.254,354.353 377.454,355.157 375.51,355.784C373.138,356.549 370.552,357.049 367.845,357.049C366.851,357.049 365.873,356.982 364.916,356.858C366.077,358.19 367.043,359.611 367.845,361.036C368.127,361.536 368.389,362.037 368.632,362.535C369.255,363.81 369.753,365.063 370.152,366.23C371.397,369.874 371.662,372.673 371.662,372.673C371.662,372.673 368.868,372.409 365.228,371.166C364.059,370.767 362.803,370.267 361.523,369.643C361.019,369.397 360.512,369.132 360.005,368.845C358.592,368.048 357.182,367.09 355.861,365.939C355.983,366.889 356.049,367.859 356.049,368.845C356.049,371.557 355.547,374.149 354.779,376.525C354.153,378.463 353.351,380.258 352.5,381.86C349.964,386.633 347,389.691 347,389.691C347,389.691 344.035,386.633 341.5,381.86C340.644,380.249 339.838,378.443 339.21,376.493C338.448,374.125 337.951,371.545 337.951,368.845C337.951,367.844 338.019,366.859 338.144,365.896C336.8,367.067 335.364,368.04 333.926,368.845C333.442,369.117 332.958,369.369 332.477,369.604C331.196,370.229 329.939,370.729 328.769,371.129C325.13,372.37 322.339,372.634 322.339,372.634C322.339,372.634 322.602,369.855 323.836,366.229C324.236,365.052 324.739,363.785 325.369,362.496C325.611,361.998 325.873,361.498 326.155,360.998C326.948,359.589 327.902,358.182 329.047,356.863C328.101,356.983 327.136,357.049 326.155,357.049C323.441,357.049 320.848,356.546 318.471,355.778C316.535,355.152 314.741,354.35 313.14,353.5C308.367,350.965 305.309,348 305.309,348C305.309,348 308.367,345.035 313.14,342.5C314.739,341.651 316.531,340.849 318.465,340.224C320.844,339.454 323.439,338.951 326.155,338.951C327.139,338.951 328.108,339.017 329.057,339.138C327.909,337.824 326.952,336.423 326.155,335.017C325.858,334.493 325.583,333.969 325.329,333.449C324.71,332.18 324.213,330.934 323.816,329.773C322.565,326.119 322.3,323.311 322.3,323.311C322.3,323.311 325.113,323.577 328.772,324.831C329.93,325.228 331.173,325.723 332.438,326.341C332.951,326.592 333.468,326.862 333.985,327.155C335.403,327.957 336.817,328.922 338.141,330.081C338.018,329.125 337.951,328.148 337.951,327.155C337.951,324.445 338.452,321.856 339.219,319.481C339.845,317.541 340.648,315.744 341.5,314.14ZM322.3,323.311L313.076,324.183L312.022,313.033L323.172,314.088L322.3,323.311ZM330.711,315.717C331.817,312.561 333.224,309.827 334.53,307.65C335.922,305.329 337.311,303.454 338.366,302.141C338.898,301.481 339.353,300.952 339.694,300.569C339.865,300.377 340.008,300.221 340.118,300.103C340.174,300.043 340.221,299.993 340.259,299.953L340.311,299.899L340.331,299.878L340.34,299.868L340.345,299.864C340.347,299.862 340.348,299.86 347,306.309C353.651,299.86 353.653,299.862 353.655,299.864L353.669,299.878L353.689,299.899L353.74,299.953C353.779,299.993 353.826,300.043 353.881,300.103C353.992,300.221 354.135,300.377 354.306,300.569C354.647,300.952 355.102,301.481 355.633,302.141C356.689,303.454 358.078,305.329 359.47,307.65C360.774,309.825 362.179,312.554 363.285,315.706C363.387,315.674 363.487,315.643 363.587,315.613C365.548,315.014 367.251,314.644 368.498,314.419C369.124,314.306 369.643,314.228 370.031,314.177C370.225,314.151 370.387,314.131 370.515,314.117C370.578,314.109 370.633,314.103 370.679,314.099L370.741,314.092L370.767,314.09L370.784,314.088C370.787,314.088 370.789,314.088 371.661,323.311C380.885,324.183 380.885,324.186 380.884,324.188L380.884,324.194L380.883,324.206L380.88,324.232L380.874,324.294C380.869,324.34 380.863,324.395 380.856,324.459C380.842,324.586 380.822,324.749 380.796,324.944C380.744,325.333 380.666,325.854 380.552,326.481C380.327,327.731 379.955,329.44 379.354,331.406C379.324,331.504 379.293,331.603 379.261,331.704C382.427,332.811 385.168,334.221 387.35,335.53C389.671,336.922 391.546,338.311 392.859,339.367C393.519,339.898 394.048,340.353 394.431,340.694C394.623,340.865 394.779,341.008 394.897,341.119C394.957,341.174 395.007,341.221 395.047,341.26L395.101,341.311L395.122,341.331L395.136,341.345C395.138,341.347 395.14,341.349 388.691,348C395.14,354.651 395.138,354.653 395.136,354.655L395.122,354.669L395.101,354.689L395.047,354.741C395.026,354.761 395.003,354.783 394.976,354.808C394.952,354.83 394.926,354.855 394.897,354.881C394.779,354.992 394.623,355.135 394.431,355.306C394.048,355.647 393.519,356.102 392.859,356.633C391.546,357.689 389.671,359.078 387.35,360.47C385.169,361.778 382.43,363.188 379.266,364.295C379.297,364.394 379.327,364.492 379.357,364.589C379.957,366.552 380.328,368.258 380.553,369.506C380.666,370.133 380.744,370.653 380.796,371.041C380.822,371.236 380.842,371.398 380.856,371.526C380.861,371.563 380.864,371.598 380.868,371.63C380.87,371.652 380.872,371.672 380.874,371.69L380.88,371.752L380.883,371.778L380.884,371.79L380.885,371.795C380.885,371.798 380.885,371.801 371.662,372.673C370.79,381.896 370.787,381.896 370.784,381.896L370.767,381.894L370.741,381.892L370.679,381.885C370.655,381.883 370.628,381.88 370.598,381.877C370.572,381.874 370.544,381.871 370.515,381.867C370.387,381.853 370.225,381.833 370.031,381.807C369.643,381.755 369.123,381.678 368.497,381.565C367.251,381.34 365.547,380.97 363.586,380.371C363.488,380.341 363.39,380.31 363.29,380.279C362.184,383.437 360.776,386.172 359.47,388.35C358.078,390.671 356.689,392.546 355.633,393.859C355.102,394.519 354.647,395.048 354.306,395.431C354.135,395.623 353.992,395.779 353.881,395.897C353.826,395.957 353.779,396.007 353.74,396.047L353.689,396.101L353.669,396.122L353.655,396.136C353.653,396.138 353.651,396.14 347,389.691C340.348,396.14 340.347,396.138 340.345,396.136L340.331,396.122L340.311,396.101L340.259,396.047C340.221,396.007 340.174,395.957 340.118,395.897C340.008,395.779 339.865,395.623 339.694,395.431C339.353,395.048 338.898,394.519 338.366,393.859C337.311,392.546 335.922,390.671 334.53,388.35C333.219,386.164 331.806,383.417 330.697,380.244C330.603,380.274 330.51,380.303 330.417,380.331C328.456,380.93 326.751,381.301 325.504,381.526C324.878,381.639 324.358,381.716 323.97,381.768C323.775,381.794 323.613,381.814 323.486,381.828C323.422,381.836 323.367,381.842 323.321,381.846L323.259,381.853L323.233,381.855L323.216,381.857C323.213,381.857 323.211,381.857 322.339,372.634C313.115,371.762 313.116,371.759 313.116,371.756L313.117,371.739L313.12,371.714L313.126,371.652C313.131,371.606 313.137,371.551 313.144,371.487C313.158,371.36 313.178,371.199 313.204,371.005C313.256,370.617 313.333,370.1 313.446,369.475C313.67,368.232 314.039,366.532 314.635,364.575C314.664,364.482 314.693,364.387 314.723,364.291C311.564,363.185 308.829,361.777 306.65,360.47C304.329,359.078 302.454,357.689 301.141,356.633C300.481,356.102 299.952,355.647 299.569,355.306C299.377,355.135 299.221,354.992 299.103,354.881C299.043,354.826 298.993,354.779 298.953,354.741L298.899,354.689L298.878,354.669L298.868,354.66L298.864,354.655C298.862,354.653 298.86,354.651 305.309,348C298.86,341.349 298.862,341.347 298.864,341.345L298.878,341.331L298.899,341.311L298.953,341.26C298.993,341.221 299.043,341.174 299.103,341.119C299.221,341.008 299.377,340.865 299.569,340.694C299.952,340.353 300.481,339.898 301.141,339.367C302.454,338.311 304.329,336.922 306.65,335.53C308.824,334.226 311.553,332.821 314.703,331.716C314.67,331.61 314.638,331.506 314.606,331.402C314.006,329.438 313.634,327.729 313.409,326.48C313.295,325.853 313.217,325.332 313.165,324.943C313.139,324.749 313.119,324.586 313.105,324.459C313.098,324.395 313.092,324.34 313.087,324.294L313.081,324.232L313.078,324.206L313.077,324.188C313.076,324.186 313.076,324.183 322.3,323.311C323.172,314.088 323.174,314.088 323.177,314.088L323.194,314.09L323.22,314.092L323.282,314.099C323.328,314.103 323.383,314.109 323.447,314.117C323.575,314.131 323.738,314.151 323.933,314.177C324.322,314.229 324.843,314.307 325.472,314.421C326.722,314.646 328.432,315.019 330.399,315.62C330.502,315.652 330.606,315.684 330.711,315.717ZM305.309,348L298.86,354.651L292,348L298.86,341.349L305.309,348ZM322.339,372.634L323.211,381.857L312.061,382.911L313.115,371.762L322.339,372.634ZM353.688,383.28C353.691,383.283 353.691,383.283 353.688,383.279L353.688,383.28ZM347,389.691L353.651,396.14L347,403L340.348,396.14L347,389.691ZM371.662,372.673L380.885,371.801L381.939,382.95L370.79,381.896L371.662,372.673ZM388.691,348L395.14,341.349L402,348L395.14,354.651L388.691,348ZM371.661,323.311L370.789,314.088L381.939,313.033L380.885,324.183L371.661,323.311ZM347,306.309L340.348,299.86L347,293L353.651,299.86L347,306.309Z" style="fill:white;"/>
    </g>
    <g transform="matrix(4.166667,0,0,4.166667,0,0)">
        <path d="M355.864,330.043C355.984,329.099 356.05,328.135 356.05,327.155C356.05,315.642 347,306.31 347,306.31C347,306.31 337.951,315.642 337.951,327.155C337.951,328.148 338.019,329.125 338.142,330.081C331.39,324.171 322.3,323.312 322.3,323.312C322.3,323.312 323.158,332.388 329.057,339.139C328.109,339.018 327.14,338.951 326.155,338.951C314.642,338.951 305.31,348 305.31,348C305.31,348 314.642,357.05 326.155,357.05C327.136,357.05 328.102,356.984 329.047,356.864C323.193,363.608 322.339,372.634 322.339,372.634C322.339,372.634 331.396,371.778 338.145,365.896C338.02,366.86 337.951,367.845 337.951,368.846C337.951,380.359 347,389.691 347,389.691C347,389.691 356.05,380.359 356.05,368.846C356.05,367.86 355.983,366.889 355.862,365.939C362.609,371.817 371.662,372.673 371.662,372.673C371.662,372.673 370.805,363.608 364.916,356.859C365.873,356.982 366.851,357.05 367.846,357.05C379.359,357.05 388.691,348 388.691,348C388.691,348 379.359,338.951 367.846,338.951C366.846,338.951 365.862,339.02 364.9,339.144C370.803,332.393 371.662,323.312 371.662,323.312C371.662,323.312 362.611,324.167 355.864,330.043Z" style="fill:rgb(31,98,126);fill-rule:nonzero;"/>
    </g>
    <g transform="matrix(2.946278,-2.946278,2.946278,2.946278,-613.543342,1418.775343)">
        <rect x="337.402" y="348" width="13.574" height="13.574" style="fill:white;"/>
    </g>
    <g transform="matrix(4.166667,0,0,4.166667,0,0)">
        <path d="M91.383,215.78C92.753,210.6 91.416,204.862 87.366,200.812C83.17,196.615 77.161,195.331 71.839,196.954C68.774,190.195 62.357,182.15 59.467,178.692C58.696,177.769 57.304,177.769 56.533,178.692C53.649,182.142 47.255,190.158 44.182,196.907C38.899,195.356 32.967,196.656 28.811,200.812C24.78,204.842 23.436,210.546 24.775,215.706C18.054,218.802 10.119,225.132 6.692,227.997C5.769,228.768 5.769,230.16 6.692,230.931C10.175,233.843 18.315,240.334 25.105,243.371C23.258,248.805 24.492,255.046 28.812,259.366C32.986,263.54 38.953,264.833 44.254,263.249C47.354,269.965 53.671,277.884 56.533,281.308C57.304,282.23 58.696,282.23 59.467,281.308C62.335,277.876 68.675,269.928 71.767,263.202C77.107,264.858 83.151,263.581 87.366,259.366C91.705,255.028 92.93,248.752 91.049,243.301C97.807,240.236 105.85,233.821 109.308,230.931C110.23,230.16 110.23,228.768 109.308,227.997C105.907,225.154 98.07,218.902 91.383,215.78ZM57.009,218.72C57.538,221.994 57.882,225.023 58.089,227.169C58.296,225.02 58.64,221.986 59.17,218.708C58.784,218.737 58.394,218.752 58,218.752C57.667,218.752 57.336,218.741 57.009,218.72ZM56.876,230.089C57.45,229.901 57.901,229.45 58.089,228.876C58.276,229.45 58.727,229.901 59.301,230.089C58.728,230.277 58.277,230.728 58.089,231.301C57.901,230.728 57.45,230.276 56.876,230.089ZM69.253,229.042C66.058,229.553 63.111,229.886 61.009,230.089C63.129,230.293 66.111,230.631 69.338,231.15C69.278,230.596 69.248,230.033 69.248,229.464C69.248,229.323 69.25,229.182 69.253,229.042ZM58.089,233.009C58.292,235.118 58.627,238.08 59.142,241.289C58.765,241.262 58.384,241.248 58,241.248C57.677,241.248 57.356,241.258 57.038,241.277C57.551,238.073 57.886,235.115 58.089,233.009ZM55.168,230.089C53.028,229.882 50.009,229.54 46.745,229.013C46.749,229.163 46.752,229.313 46.752,229.464C46.752,230.044 46.72,230.616 46.658,231.179C49.955,230.643 53.008,230.297 55.168,230.089Z" style="fill:rgb(31,98,126);"/>
    </g>
    <g transform="matrix(4.166667,0,0,4.166667,0,0)">
        <path d="M65.138,213.658C65.138,215.856 64.655,217.944 63.941,219.833L67.822,223.715C69.522,223.182 71.367,222.836 73.296,222.836C81.743,222.836 88.592,229.464 88.592,229.464C88.592,229.464 81.743,236.093 73.296,236.093C71.367,236.093 69.522,235.747 67.822,235.214L64.202,238.835C64.77,240.525 65.137,242.36 65.137,244.276C65.137,252.724 57.999,259.573 57.999,259.573C57.999,259.573 50.861,252.724 50.861,244.276C50.861,242.359 51.228,240.525 51.797,238.834L48.177,235.214C46.477,235.747 44.632,236.093 42.703,236.093C34.255,236.093 27.407,229.464 27.407,229.464C27.407,229.464 34.255,222.836 42.703,222.836C44.632,222.836 46.477,223.182 48.177,223.715L52.059,219.833C51.344,217.944 50.861,215.855 50.861,213.658C50.861,205.211 58,198.362 58,198.362C58,198.362 65.138,205.211 65.138,213.658Z" style="fill:white;fill-rule:nonzero;"/>
    </g>
    <g transform="matrix(4.166667,0,0,4.166667,0,0)">
        <path d="M63.356,229.463C63.356,232.419 60.956,234.819 58,234.819C55.044,234.819 52.644,232.419 52.644,229.463C52.644,226.507 55.044,224.107 58,224.107C60.956,224.107 63.356,226.507 63.356,229.463Z" style="fill:rgb(31,98,126);"/>
    </g>
    <g transform="matrix(4.166667,0,0,4.166667,0,0)">
        <path d="M436.383,215.78C437.753,210.6 436.416,204.862 432.366,200.812C428.17,196.615 422.161,195.331 416.839,196.954C413.774,190.195 407.357,182.15 404.467,178.692C403.696,177.769 402.304,177.769 401.533,178.692C398.649,182.142 392.255,190.158 389.182,196.907C383.899,195.356 377.966,196.656 373.811,200.812C369.78,204.842 368.436,210.546 369.775,215.706C363.054,218.802 355.119,225.132 351.692,227.997C350.769,228.768 350.769,230.16 351.692,230.931C355.175,233.843 363.315,240.334 370.105,243.371C368.258,248.805 369.492,255.046 373.812,259.366C377.986,263.54 383.953,264.833 389.254,263.249C392.354,269.965 398.671,277.884 401.533,281.308C402.304,282.23 403.696,282.23 404.467,281.308C407.335,277.876 413.675,269.928 416.768,263.202C422.107,264.858 428.151,263.581 432.366,259.366C436.705,255.028 437.93,248.752 436.049,243.301C442.807,240.236 450.85,233.821 454.308,230.931C455.23,230.16 455.23,228.768 454.308,227.997C450.907,225.154 443.07,218.902 436.383,215.78ZM402.009,218.72C402.538,221.994 402.882,225.023 403.089,227.169C403.296,225.02 403.64,221.986 404.17,218.708C403.784,218.737 403.394,218.752 403,218.752C402.667,218.752 402.336,218.741 402.009,218.72ZM401.876,230.089C402.45,229.901 402.901,229.45 403.089,228.876C403.276,229.45 403.728,229.901 404.301,230.089C403.728,230.277 403.277,230.728 403.089,231.301C402.901,230.728 402.45,230.276 401.876,230.089ZM414.253,229.042C411.059,229.553 408.111,229.886 406.009,230.089C408.129,230.293 411.111,230.631 414.338,231.15C414.279,230.596 414.248,230.033 414.248,229.464C414.248,229.323 414.25,229.182 414.253,229.042ZM403.089,233.009C403.292,235.118 403.628,238.08 404.142,241.289C403.765,241.262 403.384,241.248 403,241.248C402.677,241.248 402.356,241.258 402.038,241.277C402.551,238.073 402.886,235.115 403.089,233.009ZM400.168,230.089C398.028,229.882 395.009,229.54 391.745,229.013C391.749,229.163 391.752,229.313 391.752,229.464C391.752,230.044 391.72,230.616 391.658,231.179C394.955,230.643 398.008,230.297 400.168,230.089Z" style="fill:rgb(31,98,126);"/>
    </g>
    <g transform="matrix(4.166667,0,0,4.166667,0,0)">
        <path d="M410.138,213.658C410.138,215.856 409.655,217.944 408.941,219.833L412.822,223.715C414.522,223.182 416.367,222.836 418.296,222.836C426.743,222.836 433.592,229.464 433.592,229.464C433.592,229.464 426.743,236.093 418.296,236.093C416.367,236.093 414.522,235.747 412.822,235.214L409.202,238.835C409.77,240.525 410.137,242.36 410.137,244.276C410.137,252.724 402.999,259.573 402.999,259.573C402.999,259.573 395.861,252.724 395.861,244.276C395.861,242.359 396.229,240.525 396.797,238.834L393.177,235.214C391.477,235.747 389.632,236.093 387.703,236.093C379.256,236.093 372.407,229.464 372.407,229.464C372.407,229.464 379.256,222.836 387.703,222.836C389.632,222.836 391.477,223.182 393.177,223.715L397.059,219.833C396.344,217.944 395.861,215.855 395.861,213.658C395.861,205.211 403,198.362 403,198.362C403,198.362 410.138,205.211 410.138,213.658Z" style="fill:white;fill-rule:nonzero;"/>
    </g>
    <g transform="matrix(4.166667,0,0,4.166667,0,0)">
        <path d="M408.356,229.463C408.356,232.419 405.956,234.819 403,234.819C400.044,234.819 397.644,232.419 397.644,229.463C397.644,226.507 400.044,224.107 403,224.107C405.956,224.107 408.356,226.507 408.356,229.463Z" style="fill:rgb(31,98,126);"/>
    </g>
    <g transform="matrix(4.166667,0,0,4.166667,0,0)">
        <path d="M133.577,86.125C132.095,84.64 127.974,83.505 122.711,82.787C122.62,74.011 112.096,66.72 109.662,65.15C109.353,64.95 108.973,64.95 108.664,65.15C106.237,66.715 95.776,73.962 95.615,82.699C90.797,83.377 86.986,84.502 85.365,86.125C83.734,87.759 82.59,91.601 81.894,96.453C73.143,96.588 65.879,107.072 64.312,109.502C64.112,109.811 64.112,110.19 64.312,110.499C65.882,112.934 73.172,123.456 81.947,123.549C82.672,128.767 83.828,132.869 85.365,134.409C86.767,135.814 90.636,136.801 95.618,137.399C95.853,146.092 106.246,153.293 108.664,154.852C108.973,155.051 109.353,155.051 109.662,154.852C112.081,153.291 122.487,146.082 122.708,137.38C128.066,136.764 132.226,135.762 133.577,134.409C134.926,133.058 135.925,128.902 136.541,123.546C145.243,123.326 152.454,112.919 154.014,110.499C154.213,110.19 154.213,109.811 154.014,109.502C152.455,107.085 145.259,96.698 136.57,96.456C135.973,91.436 134.985,87.535 133.577,86.125Z" style="fill:white;fill-rule:nonzero;"/>
    </g>
    <g transform="matrix(4.166667,0,0,4.166667,0,0)">
        <path d="M133.577,134.409C132.226,135.762 128.066,136.764 122.708,137.38C122.487,146.082 112.081,153.291 109.662,154.852C109.353,155.051 108.973,155.051 108.664,154.852C106.246,153.293 95.853,146.092 95.618,137.399C90.636,136.801 86.767,135.814 85.365,134.409C83.828,132.869 82.672,128.767 81.947,123.549C73.172,123.456 65.882,112.934 64.312,110.499C64.112,110.19 64.112,109.811 64.312,109.502C65.879,107.072 73.143,96.588 81.894,96.453C82.59,91.601 83.734,87.759 85.365,86.125C86.986,84.502 90.797,83.377 95.615,82.699C95.776,73.962 106.237,66.715 108.664,65.15C108.973,64.95 109.353,64.95 109.662,65.15C112.096,66.72 122.62,74.011 122.711,82.787C127.974,83.505 132.095,84.64 133.577,86.125C134.985,87.535 135.973,91.436 136.57,96.456C145.259,96.698 152.455,107.085 154.014,109.502C154.213,109.811 154.213,110.19 154.014,110.499C152.454,112.919 145.243,123.326 136.541,123.546C135.925,128.902 134.926,133.058 133.577,134.409ZM145.354,131.59C145.243,132.082 145.127,132.563 145.003,133.031C144.672,134.287 144.243,135.638 143.67,136.936C143.147,138.119 142.232,139.894 140.653,141.475C139.072,143.059 137.295,143.977 136.11,144.502C134.811,145.077 133.458,145.507 132.201,145.839C131.731,145.963 131.247,146.081 130.752,146.192C128.998,150.221 126.384,153.446 124.258,155.683C120.548,159.587 116.601,162.276 115.081,163.256C111.473,165.583 106.853,165.583 103.244,163.256C101.725,162.276 97.783,159.591 94.075,155.691C91.936,153.441 89.3,150.189 87.544,146.124C87.169,146.031 86.8,145.934 86.438,145.832C84.445,145.271 80.935,144.125 78.289,141.475L85.365,134.409L78.289,141.475C75.692,138.874 74.447,135.437 73.788,133.282C73.636,132.785 73.493,132.275 73.357,131.754C69.185,130.018 65.851,127.338 63.557,125.168C59.61,121.436 56.893,117.446 55.908,115.919C53.58,112.31 53.58,107.691 55.908,104.082C56.891,102.557 59.599,98.582 63.532,94.857C65.836,92.674 69.19,89.974 73.39,88.233C73.511,87.811 73.637,87.394 73.77,86.985C74.501,84.741 75.792,81.559 78.288,79.059C80.792,76.552 83.977,75.267 86.213,74.543C86.607,74.416 87.009,74.294 87.416,74.179C89.16,69.995 91.854,66.653 94.033,64.355C97.754,60.43 101.721,57.728 103.244,56.746C106.853,54.418 111.473,54.418 115.081,56.746C116.609,57.731 120.598,60.448 124.331,64.395C126.496,66.684 129.169,70.009 130.905,74.168C131.422,74.3 131.929,74.439 132.421,74.586C134.513,75.21 138.027,76.428 140.653,79.059L133.577,86.125L140.653,79.059C143.306,81.716 144.449,85.243 145.008,87.243C145.113,87.619 145.213,88.002 145.309,88.391C149.365,90.148 152.61,92.78 154.857,94.917C158.755,98.624 161.439,102.564 162.418,104.082C164.745,107.691 164.745,112.31 162.418,115.919C161.438,117.439 158.749,121.386 154.844,125.097C152.608,127.222 149.383,129.836 145.354,131.59Z" style="fill:white;"/>
    </g>
    <g transform="matrix(4.166667,0,0,4.166667,0,0)">
        <path d="M133.577,86.125C132.095,84.64 127.974,83.505 122.711,82.787C122.62,74.011 112.096,66.72 109.662,65.15C109.353,64.95 108.973,64.95 108.664,65.15C106.237,66.715 95.776,73.962 95.615,82.699C90.797,83.377 86.986,84.502 85.365,86.125C83.734,87.759 82.59,91.601 81.894,96.453C73.143,96.588 65.879,107.072 64.312,109.502C64.112,109.811 64.112,110.19 64.312,110.499C65.882,112.934 73.172,123.456 81.947,123.549C82.672,128.767 83.828,132.869 85.365,134.409C86.767,135.814 90.636,136.801 95.618,137.399C95.853,146.092 106.246,153.293 108.664,154.852C108.973,155.051 109.353,155.051 109.662,154.852C112.081,153.291 122.487,146.082 122.708,137.38C128.066,136.764 132.226,135.762 133.577,134.409C134.926,133.058 135.925,128.902 136.541,123.546C145.243,123.326 152.454,112.919 154.014,110.499C154.213,110.19 154.213,109.811 154.014,109.502C152.455,107.085 145.259,96.698 136.57,96.456C135.973,91.436 134.985,87.535 133.577,86.125Z" style="fill:rgb(1,28,44);fill-rule:nonzero;"/>
    </g>
    <g transform="matrix(4.166667,0,0,4.166667,0,0)">
        <path d="M90.202,109.97C90.198,105.126 105.279,90.791 109.378,90.794C113.476,90.797 128.58,106.273 128.583,109.999C128.586,113.725 113.505,129.178 109.407,129.175C105.121,129.172 90.206,114.814 90.202,109.97Z" style="fill:white;fill-rule:nonzero;"/>
    </g>
    <g transform="matrix(4.166667,0,0,4.166667,0,0)">
        <circle cx="109.163" cy="110" r="6.775" style="fill:rgb(31,98,126);"/>
    </g>
    <g transform="matrix(4.166667,0,0,4.166667,0,0)">
        <path d="M133.578,324.125C132.096,322.64 127.975,321.505 122.712,320.787C122.621,312.011 112.097,304.72 109.663,303.149C109.354,302.95 108.974,302.95 108.665,303.149C106.238,304.714 95.777,311.962 95.616,320.699C90.798,321.377 86.987,322.502 85.366,324.125C83.734,325.759 82.591,329.601 81.895,334.453C73.144,334.588 65.879,345.072 64.313,347.502C64.113,347.811 64.113,348.19 64.313,348.499C65.883,350.934 73.173,361.456 81.948,361.549C82.673,366.767 83.828,370.869 85.366,372.409C86.769,373.814 90.637,374.801 95.618,375.399C95.854,384.092 106.247,391.293 108.665,392.852C108.974,393.051 109.354,393.051 109.663,392.852C112.082,391.291 122.488,384.082 122.709,375.38C128.067,374.764 132.227,373.762 133.578,372.409C134.927,371.058 135.926,366.902 136.542,361.546C145.244,361.326 152.455,350.919 154.015,348.499C154.214,348.19 154.214,347.811 154.015,347.502C152.456,345.085 145.26,334.698 136.571,334.456C135.974,329.436 134.986,325.535 133.578,324.125Z" style="fill:white;fill-rule:nonzero;"/>
    </g>
    <g transform="matrix(4.166667,0,0,4.166667,0,0)">
        <path d="M133.578,372.409C132.227,373.762 128.067,374.764 122.709,375.38C122.488,384.082 112.082,391.291 109.663,392.852C109.354,393.051 108.974,393.051 108.665,392.852C106.247,391.293 95.854,384.092 95.618,375.399C90.637,374.801 86.769,373.814 85.366,372.409C83.828,370.869 82.673,366.767 81.948,361.549C73.173,361.456 65.883,350.934 64.313,348.499C64.113,348.19 64.113,347.811 64.313,347.502C65.879,345.072 73.144,334.588 81.895,334.453C82.591,329.601 83.734,325.759 85.366,324.125C86.987,322.502 90.798,321.377 95.616,320.699C95.777,311.962 106.238,304.714 108.665,303.149C108.974,302.95 109.354,302.95 109.663,303.149C112.097,304.72 122.621,312.011 122.712,320.787C127.975,321.505 132.096,322.64 133.578,324.125C134.986,325.535 135.974,329.436 136.571,334.456C145.26,334.698 152.456,345.085 154.015,347.502C154.214,347.811 154.214,348.19 154.015,348.499C152.455,350.919 145.244,361.326 136.542,361.546C135.926,366.902 134.927,371.058 133.578,372.409ZM145.355,369.59C145.244,370.082 145.128,370.563 145.004,371.031C144.673,372.287 144.244,373.638 143.671,374.936C143.148,376.119 142.233,377.894 140.654,379.475C139.073,381.059 137.296,381.977 136.111,382.502C134.812,383.077 133.459,383.507 132.202,383.839C131.732,383.963 131.248,384.081 130.753,384.192C128.999,388.221 126.385,391.446 124.259,393.683C120.549,397.587 116.602,400.276 115.082,401.256C111.474,403.583 106.854,403.583 103.245,401.256C101.726,400.276 97.784,397.591 94.076,393.691C91.936,391.441 89.301,388.189 87.545,384.124C87.17,384.031 86.801,383.934 86.439,383.832C84.446,383.271 80.936,382.125 78.29,379.475L85.366,372.409L78.29,379.475C75.693,376.874 74.448,373.437 73.789,371.282C73.637,370.785 73.493,370.275 73.358,369.754C69.186,368.018 65.852,365.338 63.557,363.168C59.611,359.436 56.894,355.446 55.909,353.919C53.581,350.31 53.581,345.691 55.909,342.082C56.892,340.557 59.6,336.582 63.533,332.857C65.837,330.674 69.191,327.974 73.391,326.233C73.511,325.811 73.638,325.394 73.771,324.985C74.502,322.741 75.793,319.56 78.29,317.059C80.793,314.552 83.978,313.267 86.213,312.543C86.608,312.416 87.01,312.294 87.417,312.179C89.162,307.995 91.855,304.653 94.034,302.355C97.755,298.43 101.722,295.728 103.245,294.746C106.854,292.418 111.474,292.418 115.082,294.746C116.61,295.731 120.599,298.448 124.332,302.396C126.497,304.685 129.169,308.009 130.906,312.168C131.423,312.3 131.93,312.439 132.422,312.586C134.514,313.21 138.028,314.428 140.654,317.059L133.578,324.125L140.654,317.059C143.307,319.716 144.45,323.243 145.009,325.243C145.114,325.619 145.214,326.002 145.31,326.391C149.366,328.148 152.611,330.78 154.858,332.917C158.756,336.624 161.44,340.564 162.419,342.082C164.746,345.691 164.746,350.31 162.419,353.919C161.439,355.439 158.75,359.386 154.845,363.097C152.608,365.222 149.384,367.836 145.355,369.59Z" style="fill:white;"/>
    </g>
    <g transform="matrix(4.166667,0,0,4.166667,0,0)">
        <path d="M133.578,324.125C132.096,322.64 127.975,321.505 122.712,320.787C122.621,312.011 112.097,304.72 109.663,303.149C109.354,302.95 108.974,302.95 108.665,303.149C106.238,304.714 95.777,311.962 95.616,320.699C90.798,321.377 86.987,322.502 85.366,324.125C83.734,325.759 82.591,329.601 81.895,334.453C73.144,334.588 65.879,345.072 64.313,347.502C64.113,347.811 64.113,348.19 64.313,348.499C65.883,350.934 73.173,361.456 81.948,361.549C82.673,366.767 83.828,370.869 85.366,372.409C86.769,373.814 90.637,374.801 95.618,375.399C95.854,384.092 106.247,391.293 108.665,392.852C108.974,393.051 109.354,393.051 109.663,392.852C112.082,391.291 122.488,384.082 122.709,375.38C128.067,374.764 132.227,373.762 133.578,372.409C134.927,371.058 135.926,366.902 136.542,361.546C145.244,361.326 152.455,350.919 154.015,348.499C154.214,348.19 154.214,347.811 154.015,347.502C152.456,345.085 145.26,334.698 136.571,334.456C135.974,329.436 134.986,325.535 133.578,324.125Z" style="fill:rgb(1,28,44);fill-rule:nonzero;"/>
    </g>
    <g transform="matrix(4.166667,0,0,4.166667,0,0)">
        <path d="M90.203,347.97C90.199,343.126 105.28,328.791 109.379,328.794C113.477,328.797 128.581,344.273 128.584,347.999C128.587,351.725 113.506,367.178 109.408,367.175C105.122,367.172 90.207,352.814 90.203,347.97Z" style="fill:white;fill-rule:nonzero;"/>
    </g>
    <g transform="matrix(4.166667,0,0,4.166667,0,0)">
        <circle cx="109.164" cy="348" r="6.775" style="fill:rgb(31,98,126);"/>
    </g>
    <g transform="matrix(4.166667,0,0,4.166667,0,0)">
        <path d="M253.535,158.258C259.657,162.02 264.248,166.958 267.309,173.072C270.606,179.185 272.254,185.534 272.254,192.118C272.254,198.936 270.606,205.403 267.309,211.516C264.248,217.395 259.657,222.332 253.535,226.33C247.412,230.092 239.76,231.973 230.576,231.973L189.393,231.973C188.841,231.973 188.393,231.525 188.393,230.973L188.393,153.615C188.393,153.063 188.841,152.615 189.393,152.615L230.576,152.615C239.76,152.615 247.412,154.496 253.535,158.258ZM247.118,216.187C251.618,213.219 254.673,209.8 256.666,205.974L256.706,205.897L256.747,205.821C259.118,201.424 260.254,196.91 260.254,192.118C260.254,187.632 259.153,183.23 256.747,178.767L256.661,178.607L256.579,178.444C254.572,174.435 251.57,171.136 247.252,168.482C243.478,166.163 238.15,164.615 230.576,164.615L200.393,164.615L200.393,219.973L230.576,219.973C238.061,219.973 243.353,218.461 247.118,216.187ZM122,354L122,106C122,98.82 127.82,93 135,93L230.576,93C253.519,93 273.574,97.527 290.04,107.381C306.065,116.834 318.408,129.287 326.607,144.791C334.802,159.615 339,175.324 339,191.765C339,208.633 334.824,224.696 326.608,239.795C318.394,255.09 306.041,267.416 290.039,276.854C273.573,286.708 253.519,291.235 230.576,291.235L200.393,291.235L200.393,354C200.393,361.18 194.573,367 187.393,367L135,367C127.82,367 122,361.18 122,354ZM283.91,266.538C298.273,258.073 308.987,247.257 316.051,234.089C323.35,220.686 327,206.578 327,191.765C327,177.422 323.35,163.666 316.051,150.499C308.987,137.096 298.273,126.162 283.91,117.697C269.782,109.232 252.004,105 230.576,105L135,105C134.448,105 134,105.448 134,106L134,354C134,354.552 134.448,355 135,355L187.393,355C187.945,355 188.393,354.552 188.393,354L188.393,280.235C188.393,279.683 188.841,279.235 189.393,279.235L230.576,279.235C252.004,279.235 269.782,275.003 283.91,266.538Z" style="fill:white;"/>
    </g>
    <g transform="matrix(4.166667,0,0,4.166667,0,0)">
        <path d="M135,355C134.448,355 134,354.552 134,354L134,106C134,105.448 134.448,105 135,105L230.576,105C252.004,105 269.782,109.232 283.91,117.697C298.273,126.162 308.987,137.096 316.051,150.499C323.35,163.666 327,177.422 327,191.765C327,206.578 323.35,220.686 316.051,234.089C308.987,247.257 298.273,258.073 283.91,266.538C269.782,275.003 252.004,279.235 230.576,279.235L189.393,279.235C188.841,279.235 188.393,279.683 188.393,280.235L188.393,354C188.393,354.552 187.945,355 187.393,355L135,355ZM230.576,152.615L189.393,152.615C188.841,152.615 188.393,153.063 188.393,153.615L188.393,230.973C188.393,231.525 188.841,231.973 189.393,231.973L230.576,231.973C239.76,231.973 247.412,230.092 253.535,226.33C259.657,222.332 264.248,217.395 267.309,211.516C270.606,205.403 272.254,198.936 272.254,192.118C272.254,185.534 270.606,179.185 267.309,173.072C264.248,166.958 259.657,162.02 253.535,158.258C247.412,154.496 239.76,152.615 230.576,152.615Z" style="fill:url(#_Linear1);fill-rule:nonzero;"/>
    </g>
    <g transform="matrix(4.166667,0,0,4.166667,0,0)">
        <path d="M230,450C351.503,450 450,351.503 450,230C450,108.497 351.503,10 230,10C108.497,10 10,108.497 10,230C10,351.503 108.497,450 230,450ZM230,460C357.025,460 460,357.025 460,230C460,102.975 357.025,0 230,0C102.975,0 0,102.975 0,230C0,357.025 102.975,460 230,460Z" style="fill:rgb(1,28,44);"/>
    </g>
    <g transform="matrix(4.166667,0,0,4.166667,0,0)">
        <path d="M600.54,121.475C609.71,121.475 617.719,123.154 624.567,126.513C631.415,129.872 636.638,134.563 640.237,140.586C643.951,146.494 645.808,153.269 645.808,160.914C645.808,169.37 643.777,176.551 639.714,182.458C635.652,188.249 630.312,192.651 623.696,195.662C617.08,198.558 610,200.006 602.455,200.006L572.161,200.006L572.161,246.569C572.161,247.148 572.625,247.611 573.554,247.958C574.482,248.306 575.353,248.48 576.165,248.48L576.165,251.781L545,251.781L545,248.48C545.813,248.48 546.683,248.306 547.612,247.958C548.54,247.611 549.004,247.148 549.004,246.569L549.004,126.687C549.004,126.108 548.54,125.645 547.612,125.297C546.799,124.95 545.987,124.776 545.174,124.776L545.174,121.475L600.54,121.475ZM603.848,177.941C607.911,177.941 611.509,177.072 614.643,175.335C617.777,173.481 620.156,171.165 621.781,168.385C623.406,165.605 624.219,162.709 624.219,159.698C624.219,155.181 622.304,151.185 618.473,147.71C614.643,144.235 609.826,142.498 604.022,142.498L572.161,142.498L572.161,177.941L603.848,177.941Z" style="fill:white;fill-rule:nonzero;"/>
    </g>
    <g transform="matrix(4.166667,0,0,4.166667,0,0)">
        <path d="M727.629,254.561C714.165,254.561 702.093,251.491 691.415,245.352C680.852,239.098 672.611,230.874 666.691,220.681C660.888,210.372 657.986,199.485 657.986,188.018C657.986,176.435 660.772,165.316 666.343,154.659C671.915,143.887 679.982,135.142 690.544,128.424C701.107,121.706 713.468,118.347 727.629,118.347C741.441,118.347 753.571,121.533 764.017,127.903C774.464,134.274 782.473,142.787 788.044,153.443C793.615,163.984 796.401,175.508 796.401,188.018C796.401,199.137 793.615,209.851 788.044,220.16C782.589,230.353 774.638,238.634 764.191,245.005C753.745,251.375 741.557,254.561 727.629,254.561ZM727.803,231.627C736.508,231.627 744.285,229.831 751.133,226.241C758.098,222.534 763.495,217.38 767.325,210.778C771.272,204.06 773.245,196.473 773.245,188.018C773.245,179.099 771.388,171.107 767.673,164.041C763.959,156.976 758.62,151.416 751.656,147.362C744.691,143.192 736.45,141.108 726.932,141.108C718.227,141.108 710.45,143.192 703.602,147.362C696.87,151.416 691.589,157.034 687.758,164.215C683.928,171.396 682.013,179.331 682.013,188.018C682.013,197.052 684.218,204.871 688.629,211.473C693.156,218.075 698.901,223.113 705.865,226.588C712.946,229.947 720.258,231.627 727.803,231.627Z" style="fill:white;fill-rule:nonzero;"/>
    </g>
    <g transform="matrix(4.166667,0,0,4.166667,0,0)">
        <path d="M933.331,124.776L932.286,124.776C930.081,124.776 928.746,125.123 928.282,125.818L881.447,192.883L881.447,246.569C881.447,247.148 881.911,247.611 882.84,247.958C883.884,248.306 884.871,248.48 885.8,248.48L885.8,251.781L851.675,251.781L851.675,248.48C852.603,248.48 853.532,248.306 854.46,247.958C855.505,247.611 856.027,247.148 856.027,246.569L856.027,193.925L808.496,125.818C808.148,125.355 807.393,125.065 806.233,124.95C805.188,124.834 804.26,124.776 803.447,124.776L803.447,121.475L839.313,121.475L839.313,124.776C837.92,124.776 837.224,125.065 837.224,125.645C837.224,126.108 837.398,126.629 837.746,127.208L868.041,169.775L897.987,127.208L898.335,126.513C898.335,125.934 897.987,125.529 897.291,125.297C896.71,124.95 895.84,124.776 894.679,124.776L894.679,121.475L933.331,121.475L933.331,124.776Z" style="fill:white;fill-rule:nonzero;"/>
    </g>
    <g transform="matrix(4.166667,0,0,4.166667,0,0)">
        <path d="M1049.57,118L1049.57,144.756L1046.26,144.756C1046.26,144.061 1046.09,143.308 1045.74,142.498C1045.39,141.687 1044.93,141.281 1044.35,141.281L1005.52,141.281L1005.52,246.569C1005.52,247.148 1005.98,247.611 1006.91,247.958C1007.84,248.306 1008.77,248.48 1009.7,248.48L1009.7,251.781L977.663,251.781L977.663,248.48C978.591,248.48 979.52,248.306 980.449,247.958C981.377,247.611 981.841,247.148 981.841,246.569L981.841,141.281L942.841,141.281C942.261,141.281 941.797,141.687 941.449,142.498C941.1,143.308 940.926,144.061 940.926,144.756L937.618,144.756L937.618,118L940.926,118C940.926,118.695 941.1,119.448 941.449,120.259C941.797,121.069 942.261,121.475 942.841,121.475L1044.35,121.475C1044.93,121.475 1045.39,121.069 1045.74,120.259C1046.09,119.448 1046.26,118.695 1046.26,118L1049.57,118Z" style="fill:white;fill-rule:nonzero;"/>
    </g>
    <g transform="matrix(4.166667,0,0,4.166667,0,0)">
        <path d="M1188.48,246.916C1188.83,247.959 1190.22,248.48 1192.66,248.48L1192.66,251.781L1157.32,251.781L1157.32,248.48C1158.82,248.48 1159.87,248.132 1160.45,247.437C1161.03,246.742 1161.15,246.047 1160.8,245.352L1151.22,220.855L1094.46,220.855L1084.89,245.352L1084.71,245.874C1084.71,246.569 1085,247.206 1085.58,247.785C1086.28,248.248 1087.15,248.48 1088.2,248.48L1088.2,251.781L1053.9,251.781L1053.9,248.48C1056.22,248.48 1057.61,247.959 1058.07,246.916L1106.48,129.467C1106.82,128.772 1107,128.135 1107,127.556C1107,126.513 1106.53,125.818 1105.61,125.471C1104.68,125.008 1103.69,124.776 1102.65,124.776L1102.65,121.475L1143.21,121.475L1143.21,124.776C1142.17,124.776 1141.18,125.008 1140.25,125.471C1139.32,125.818 1138.86,126.513 1138.86,127.556C1138.86,128.135 1139.03,128.772 1139.38,129.467L1188.48,246.916ZM1122.84,148.578L1102.3,200.875L1143.39,200.875L1122.84,148.578Z" style="fill:white;fill-rule:nonzero;"/>
    </g>
    <g transform="matrix(4.166667,0,0,4.166667,0,0)">
        <path d="M1331.32,124.776L1329.23,124.776C1327.37,124.776 1326.27,125.008 1325.92,125.471L1277.52,186.28L1323.31,247.611C1323.77,248.19 1324.7,248.48 1326.09,248.48L1328.53,248.48L1328.53,251.781L1291.62,251.781L1291.62,248.48C1293.01,248.48 1293.71,248.19 1293.71,247.611C1293.71,247.379 1293.48,246.916 1293.01,246.221L1262.37,206.261L1231.55,246.221C1231.32,246.684 1231.2,246.974 1231.2,247.09C1231.2,247.437 1231.49,247.785 1232.07,248.132C1232.77,248.364 1233.64,248.48 1234.69,248.48L1234.69,251.781L1196.21,251.781L1196.21,248.48L1197.43,248.48C1199.52,248.48 1200.85,248.19 1201.43,247.611L1246.7,187.67L1201.43,125.645C1200.97,125.065 1199.98,124.776 1198.47,124.776L1196.21,124.776L1196.21,121.475L1229.98,121.475L1229.98,124.776C1228.59,124.776 1227.9,125.008 1227.9,125.471C1227.9,125.587 1228.01,125.818 1228.24,126.166C1228.48,126.513 1228.65,126.745 1228.77,126.861L1262.54,169.601L1295.8,127.035C1296.03,126.571 1296.15,126.282 1296.15,126.166C1296.15,125.239 1295.04,124.776 1292.84,124.776L1292.84,121.475L1331.32,121.475L1331.32,124.776Z" style="fill:white;fill-rule:nonzero;"/>
    </g>
    <g transform="matrix(4.166667,0,0,4.166667,0,0)">
        <path d="M1447.6,118L1447.6,144.756L1444.29,144.756C1444.29,144.061 1444.12,143.308 1443.77,142.498C1443.42,141.687 1442.96,141.281 1442.38,141.281L1403.55,141.281L1403.55,246.569C1403.55,247.148 1404.02,247.611 1404.94,247.958C1405.87,248.306 1406.8,248.48 1407.73,248.48L1407.73,251.781L1375.69,251.781L1375.69,248.48C1376.62,248.48 1377.55,248.306 1378.48,247.958C1379.41,247.611 1379.87,247.148 1379.87,246.569L1379.87,141.281L1340.87,141.281C1340.29,141.281 1339.83,141.687 1339.48,142.498C1339.13,143.308 1338.96,144.061 1338.96,144.756L1335.65,144.756L1335.65,118L1338.96,118C1338.96,118.695 1339.13,119.448 1339.48,120.259C1339.83,121.069 1340.29,121.475 1340.87,121.475L1442.38,121.475C1442.96,121.475 1443.42,121.069 1443.77,120.259C1444.12,119.448 1444.29,118.695 1444.29,118L1447.6,118Z" style="fill:white;fill-rule:nonzero;"/>
    </g>
    <g transform="matrix(4.166667,0,0,4.166667,0,0)">
        <path d="M821.159,289.14C828.166,289.14 833.278,290.618 836.497,293.574C839.716,296.506 841.325,300.552 841.325,305.713C841.325,308.039 840.966,310.268 840.248,312.4C839.53,314.508 838.354,316.386 836.72,318.033C835.111,319.681 832.957,320.989 830.258,321.958C827.559,322.903 824.229,323.376 820.267,323.376L815.328,323.376L815.328,342.274L803.814,342.274L803.814,289.14L821.159,289.14ZM820.564,298.371L815.328,298.371L815.328,314.144L819.116,314.144C821.27,314.144 823.139,313.866 824.724,313.309C826.309,312.751 827.534,311.879 828.401,310.692C829.267,309.505 829.701,307.978 829.701,306.113C829.701,303.496 828.958,301.558 827.472,300.298C825.987,299.013 823.684,298.371 820.564,298.371Z" style="fill:white;fill-rule:nonzero;"/>
    </g>
    <g transform="matrix(4.166667,0,0,4.166667,0,0)">
        <path d="M893.943,342.274L890.006,329.627L870.211,329.627L866.274,342.274L853.869,342.274L873.033,288.922L887.109,288.922L906.348,342.274L893.943,342.274ZM887.258,320.178L883.321,307.821C883.073,306.997 882.739,305.943 882.318,304.659C881.922,303.35 881.514,302.03 881.093,300.697C880.697,299.341 880.375,298.165 880.127,297.172C879.879,298.165 879.533,299.401 879.087,300.879C878.666,302.333 878.258,303.714 877.862,305.022C877.465,306.331 877.181,307.263 877.007,307.821L873.108,320.178L887.258,320.178Z" style="fill:white;fill-rule:nonzero;"/>
    </g>
    <g transform="matrix(4.166667,0,0,4.166667,0,0)">
        <path d="M938.167,289.14C943.094,289.14 947.155,289.722 950.349,290.885C953.568,292.048 955.957,293.804 957.517,296.154C959.077,298.505 959.857,301.473 959.857,305.059C959.857,307.482 959.386,309.602 958.445,311.419C957.504,313.236 956.266,314.774 954.731,316.034C953.196,317.294 951.537,318.324 949.755,319.124L965.725,342.274L952.949,342.274L939.987,321.886L933.859,321.886L933.859,342.274L922.346,342.274L922.346,289.14L938.167,289.14ZM937.35,298.371L933.859,298.371L933.859,312.727L937.573,312.727C941.386,312.727 944.109,312.109 945.744,310.874C947.402,309.614 948.232,307.772 948.232,305.349C948.232,302.83 947.341,301.037 945.558,299.971C943.8,298.904 941.064,298.371 937.35,298.371Z" style="fill:white;fill-rule:nonzero;"/>
    </g>
    <g transform="matrix(4.166667,0,0,4.166667,0,0)">
        <path d="M1025.36,342.274L1012.29,342.274L998.064,319.887L993.199,323.303L993.199,342.274L981.686,342.274L981.686,289.14L993.199,289.14L993.199,313.454C993.966,312.412 994.722,311.37 995.464,310.328C996.207,309.287 996.962,308.245 997.73,307.203L1012.44,289.14L1025.21,289.14L1006.27,312.654L1025.36,342.274Z" style="fill:white;fill-rule:nonzero;"/>
    </g>
    <g transform="matrix(4.166667,0,0,4.166667,0,0)">
        <rect x="1041.32" y="289.14" width="11.52" height="53.134" style="fill:white;fill-rule:nonzero;"/>
    </g>
    <g transform="matrix(4.166667,0,0,4.166667,0,0)">
        <path d="M1123.8,342.274L1109.17,342.274L1085.55,302.078L1085.21,302.078C1085.31,303.75 1085.4,305.434 1085.47,307.13C1085.55,308.826 1085.62,310.522 1085.7,312.218C1085.77,313.89 1085.84,315.574 1085.92,317.27L1085.92,342.274L1075.63,342.274L1075.63,289.14L1090.15,289.14L1113.74,328.936L1114,328.936C1113.95,327.289 1113.88,325.653 1113.81,324.03C1113.74,322.407 1113.66,320.783 1113.59,319.16C1113.54,317.537 1113.49,315.913 1113.44,314.29L1113.44,289.14L1123.8,289.14L1123.8,342.274Z" style="fill:white;fill-rule:nonzero;"/>
    </g>
    <g transform="matrix(4.166667,0,0,4.166667,0,0)">
        <path d="M1167.24,312.436L1188.79,312.436L1188.79,339.985C1185.94,340.905 1182.98,341.644 1179.91,342.202C1176.84,342.735 1173.36,343.001 1169.47,343.001C1164.08,343.001 1159.49,341.959 1155.73,339.876C1151.97,337.792 1149.11,334.715 1147.15,330.644C1145.2,326.574 1144.22,321.571 1144.22,315.635C1144.22,310.062 1145.31,305.24 1147.49,301.17C1149.69,297.099 1152.9,293.95 1157.11,291.721C1161.34,289.491 1166.5,288.377 1172.59,288.377C1175.46,288.377 1178.3,288.68 1181.1,289.286C1183.9,289.891 1186.43,290.679 1188.71,291.648L1184.89,300.661C1183.23,299.837 1181.33,299.147 1179.2,298.589C1177.07,298.032 1174.85,297.754 1172.52,297.754C1169.18,297.754 1166.27,298.505 1163.79,300.007C1161.34,301.509 1159.43,303.617 1158.07,306.331C1156.73,309.02 1156.07,312.194 1156.07,315.853C1156.07,319.317 1156.55,322.394 1157.51,325.084C1158.48,327.749 1160,329.845 1162.08,331.371C1164.16,332.873 1166.87,333.625 1170.22,333.625C1171.85,333.625 1173.22,333.552 1174.34,333.407C1175.48,333.237 1176.54,333.067 1177.53,332.898L1177.53,321.813L1167.24,321.813L1167.24,312.436Z" style="fill:white;fill-rule:nonzero;"/>
    </g>
    <g transform="matrix(4.166667,0,0,4.166667,0,0)">
        <path d="M545,314.388C545,312.233 546.747,310.486 548.902,310.486L745.289,310.486C747.444,310.486 749.191,312.233 749.191,314.388C749.191,316.543 747.444,318.29 745.289,318.29L548.902,318.29C546.747,318.29 545,316.543 545,314.388Z" style="fill:white;"/>
    </g>
    <g transform="matrix(4.166667,0,0,4.166667,0,0)">
        <path d="M1243.41,314.388C1243.41,312.233 1245.16,310.486 1247.31,310.486L1443.7,310.486C1445.85,310.486 1447.6,312.233 1447.6,314.388C1447.6,316.543 1445.85,318.29 1443.7,318.29L1247.31,318.29C1245.16,318.29 1243.41,316.543 1243.41,314.388Z" style="fill:white;"/>
    </g>
    <defs>
        <linearGradient id="_Linear1" x1="0" y1="0" x2="1" y2="0" gradientUnits="userSpaceOnUse" gradientTransform="matrix(-204.717,240.005,-240.005,-204.717,327,105)"><stop offset="0" style="stop-color:rgb(0,150,169);stop-opacity:1"/><stop offset="1" style="stop-color:rgb(0,106,137);stop-opacity:1"/></linearGradient>
    </defs>
</svg>
