<?xml version="1.0" standalone="no"?>
<!DOCTYPE svg PUBLIC "-//W3C//DTD SVG 20010904//EN"
 "http://www.w3.org/TR/2001/REC-SVG-20010904/DTD/svg10.dtd">
<svg version="1.0" xmlns="http://www.w3.org/2000/svg"
 width="1536.000000pt" height="1024.000000pt" viewBox="0 0 1536.000000 1024.000000"
 preserveAspectRatio="xMidYMid meet">

<g transform="translate(0.000000,1024.000000) scale(0.100000,-0.100000)"
fill="#000000" stroke="none">
<path d="M2510 7704 c-283 -34 -504 -95 -728 -200 -932 -439 -1496 -1449
-1371 -2458 43 -348 193 -743 398 -1053 443 -666 1172 -1053 1986 -1053 577 0
1081 173 1511 518 380 305 682 799 794 1301 51 229 69 570 41 786 -40 306
-150 646 -291 897 -126 223 -256 394 -435 573 -355 356 -756 574 -1212 661
-123 24 -166 27 -398 29 -143 2 -276 1 -295 -1z m-114 -228 c-31 -35 -125
-128 -208 -207 l-151 -144 209 -202 209 -203 220 0 c356 -1 538 -39 732 -153
172 -100 300 -239 388 -421 82 -167 100 -251 99 -471 0 -156 -3 -191 -23 -265
-26 -96 -83 -225 -132 -297 -47 -69 -164 -188 -234 -238 -215 -153 -450 -206
-882 -201 l-183 2 0 -368 0 -369 -25 -24 c-24 -25 -24 -25 -236 -25 l-211 0 6
-25 c5 -18 -1 -33 -25 -60 -39 -44 -78 -65 -121 -65 -29 0 -36 -5 -46 -32 -19
-52 -93 -140 -154 -181 -54 -38 -56 -38 -86 -23 -54 28 -141 116 -164 167 -21
45 -27 50 -75 64 -71 21 -111 57 -119 106 -6 32 -13 42 -42 56 -59 28 -202
185 -202 222 0 19 73 92 152 153 49 37 85 73 98 98 25 50 63 79 114 87 34 5
53 19 117 85 71 72 80 78 117 78 22 0 52 -4 66 -10 24 -9 26 -15 26 -65 0 -30
-3 -55 -7 -55 -5 0 -19 9 -33 20 -14 11 -29 20 -33 20 -5 0 -46 -36 -92 -80
-46 -44 -89 -80 -97 -80 -49 0 -88 -23 -112 -65 -14 -24 -47 -61 -72 -82 -25
-21 -64 -54 -85 -73 l-40 -35 45 -54 c25 -30 70 -70 101 -89 39 -24 57 -42 61
-60 13 -62 22 -71 83 -88 54 -15 62 -21 75 -54 17 -42 121 -160 141 -160 22 0
103 92 135 152 27 50 35 58 60 58 38 0 75 15 100 40 12 12 27 19 34 17 7 -3
19 -1 27 4 9 5 -28 9 -98 9 -103 0 -114 2 -139 23 l-27 24 0 1360 0 1361 22
31 22 31 302 2 302 3 -130 125 c-71 68 -205 197 -297 286 l-168 162 47 27 47
26 81 -81 80 -80 175 175 175 175 68 0 69 0 -56 -64z m455 27 c70 -63 99 -154
76 -236 -7 -27 -6 -28 15 -21 33 11 110 8 151 -5 44 -15 117 -92 117 -124 0
-13 -16 -42 -35 -64 -45 -53 -114 -78 -191 -70 l-54 6 0 -47 c-1 -62 -28 -121
-76 -160 -46 -38 -69 -40 -115 -9 -48 32 -80 99 -77 162 l2 50 -55 -3 c-101
-6 -186 35 -224 109 -14 26 -13 30 26 79 52 66 93 84 179 78 l66 -5 -4 62 c-5
78 10 126 56 177 61 68 87 72 143 21z m582 -140 l178 -176 78 77 c69 69 80 76
102 68 13 -6 32 -19 42 -29 17 -19 10 -27 -255 -291 -150 -149 -290 -284 -310
-300 -35 -28 -40 -29 -85 -19 -26 6 -50 12 -53 14 -2 2 88 96 200 208 l205
205 -210 210 -210 210 70 0 70 0 178 -177z m-1824 -247 c33 -18 145 -135 165
-174 10 -20 28 -32 58 -41 75 -23 95 -38 113 -85 10 -25 15 -52 12 -61 -11
-27 -58 -18 -92 19 -26 28 -42 36 -84 42 -47 6 -54 10 -70 43 -24 46 -69 102
-109 136 l-32 26 -46 -38 c-25 -21 -64 -64 -85 -95 -33 -48 -45 -58 -68 -58
-15 0 -43 -10 -62 -23 -26 -17 -35 -31 -37 -58 -2 -28 -9 -37 -34 -48 -17 -8
-61 -42 -97 -77 l-66 -62 21 -29 c11 -15 53 -54 93 -86 39 -33 78 -72 86 -87
20 -38 62 -70 93 -70 25 0 65 -35 149 -133 l41 -47 30 25 c16 14 33 25 36 25
3 0 6 -26 6 -57 0 -44 -5 -62 -22 -80 -40 -43 -64 -32 -168 75 -77 80 -102
100 -133 106 -46 9 -115 71 -123 112 -4 22 -17 36 -50 53 -62 33 -174 154
-174 187 0 31 129 169 185 200 26 13 37 27 41 51 8 42 58 87 123 110 31 10 55
27 65 43 25 44 164 170 187 170 11 0 32 -6 48 -14z m2449 -51 c28 -30 63 -81
79 -113 l28 -58 97 4 c129 6 148 1 148 -41 0 -17 -11 -63 -24 -102 -14 -38
-24 -70 -23 -70 66 -16 227 -108 227 -131 0 -21 -91 -94 -152 -122 -49 -23
-58 -30 -53 -47 19 -61 35 -134 35 -161 0 -24 -5 -33 -22 -38 -35 -9 -169 -7
-205 3 l-33 10 -36 -70 c-20 -38 -53 -88 -74 -111 l-37 -42 -34 38 c-44 51
-77 99 -94 139 -7 17 -19 32 -27 33 -7 0 -21 2 -30 2 -18 2 -48 49 -48 75 0 7
23 21 53 30 30 9 62 26 72 37 26 29 32 25 38 -22 7 -49 50 -161 64 -165 12 -4
69 120 78 169 l7 38 42 -25 c38 -22 165 -59 174 -51 10 10 -25 90 -58 134
l-38 50 36 6 c52 9 143 44 171 65 l24 18 -59 28 c-65 31 -153 57 -166 49 -16
-10 -7 18 16 49 26 35 50 80 60 115 7 19 4 22 -22 22 -43 0 -117 -25 -149 -50
l-28 -22 -7 49 c-7 50 -65 174 -84 180 -16 5 -58 -106 -62 -169 -3 -32 -7 -58
-9 -58 -3 0 -16 9 -30 20 -27 21 -112 50 -148 50 -32 0 -22 -38 31 -116 40
-61 41 -64 21 -68 -126 -26 -187 -52 -187 -79 0 -16 48 -42 132 -70 l66 -22
-55 -55 -54 -55 -17 24 c-42 58 -109 123 -163 158 -32 21 -59 41 -59 44 0 13
72 61 135 90 65 31 65 31 51 57 -8 15 -20 56 -26 90 -18 91 -11 96 123 94
l102 -2 17 48 c17 45 110 172 127 172 5 0 32 -25 59 -55z m-2430 -357 c13 -13
15 -49 6 -84 -5 -18 -12 -21 -42 -18 -32 4 -40 0 -61 -27 l-24 -31 30 -30 c30
-29 31 -30 62 -14 l31 17 0 -54 c0 -48 -3 -55 -25 -65 -50 -23 -67 -15 -142
64 -40 42 -73 82 -73 88 0 7 34 47 77 89 67 68 81 77 113 77 20 0 41 -5 48
-12z m2451 -99 c40 -43 30 -102 -23 -127 -23 -12 -34 -12 -64 0 -62 23 -75 84
-27 131 24 25 89 22 114 -4z m-2724 -748 l270 -256 3 -75 3 -75 -53 51 c-650
620 -706 674 -767 727 -51 45 -53 49 -42 75 38 84 27 87 179 -59 75 -72 259
-246 407 -388z m3431 442 l25 -41 -148 -138 c-81 -77 -226 -213 -323 -304 -96
-90 -228 -215 -292 -277 -65 -62 -121 -113 -126 -113 -5 0 -3 34 2 75 l11 74
305 288 c168 158 350 331 405 385 55 54 104 96 109 95 4 -2 19 -21 32 -44z
m-3712 -535 c20 -23 47 -64 59 -90 20 -43 25 -47 49 -42 44 9 95 -6 135 -41
35 -30 37 -35 38 -92 l0 -60 49 -17 c60 -22 136 -90 136 -122 0 -29 -56 -76
-140 -117 l-65 -31 0 -55 c0 -92 -42 -131 -140 -131 l-54 0 -37 -57 c-42 -67
-92 -123 -110 -123 -20 0 -80 77 -106 135 l-23 54 -55 -5 c-47 -5 -60 -2 -90
18 -48 32 -62 63 -56 121 l5 48 -52 23 c-56 24 -112 73 -122 107 -4 11 0 30 9
44 18 27 86 75 133 94 27 11 31 16 23 31 -14 26 -12 54 6 100 22 54 66 80 136
80 54 0 54 0 73 42 10 23 42 66 70 96 61 62 68 61 129 -10z m3588 -32 c17 -22
37 -58 46 -78 12 -31 18 -36 33 -28 26 14 84 12 123 -4 44 -18 70 -73 64 -136
l-5 -47 49 -22 c56 -26 128 -90 128 -115 0 -29 -84 -103 -139 -123 -44 -15
-50 -20 -43 -38 21 -58 -2 -127 -53 -161 -27 -18 -88 -23 -121 -11 -19 7 -26
0 -52 -45 -16 -29 -47 -73 -69 -98 l-40 -44 -27 18 c-15 9 -49 50 -74 91 l-47
73 -56 -5 c-63 -6 -108 11 -135 53 -13 19 -16 39 -11 87 l6 63 -64 28 c-58 25
-145 95 -145 116 0 17 92 89 143 111 l53 23 -4 51 c-7 94 64 154 168 141 l45
-6 24 46 c14 25 45 68 69 95 l44 49 30 -21 c16 -12 43 -40 60 -63z m-607 -746
c106 -103 639 -600 734 -686 17 -15 9 -52 -18 -85 l-19 -23 -118 109 c-170
157 -412 384 -609 571 -93 88 -188 177 -209 196 l-40 35 28 48 28 47 42 -39
c22 -21 104 -99 181 -173z m-2427 104 l-3 -60 -404 -387 c-222 -213 -408 -386
-414 -384 -5 1 -19 20 -31 40 l-21 37 105 103 c372 364 755 726 763 718 4 -4
7 -35 5 -67z m1475 -553 l-172 -167 42 -36 c23 -19 105 -95 182 -169 77 -74
271 -255 430 -404 160 -148 317 -296 350 -327 l60 -57 -37 -38 -38 -38 -92 90
c-51 50 -110 106 -130 125 l-38 34 -127 -125 c-71 -69 -173 -168 -229 -222
l-100 -97 -73 0 c-40 0 -71 3 -69 8 2 4 118 117 258 251 140 134 256 246 258
250 1 4 -93 97 -209 207 -116 109 -280 263 -363 342 -83 78 -153 142 -157 142
-3 0 -78 -67 -165 -149 -87 -81 -174 -161 -193 -177 l-35 -29 7 25 c4 14 7 47
7 73 0 48 0 48 108 151 59 56 127 121 152 143 l44 41 -127 122 c-70 67 -127
126 -127 131 0 10 107 11 132 1 9 -4 60 -49 112 -101 l96 -94 114 111 c85 82
125 113 153 121 21 5 54 14 73 19 83 24 76 12 -97 -157z m1024 -37 c23 -45 32
-54 48 -49 11 3 64 9 118 12 l97 6 0 -39 c0 -21 -7 -66 -15 -99 -18 -75 -18
-85 -3 -85 20 0 195 -89 210 -107 11 -14 6 -22 -35 -58 -26 -23 -76 -55 -110
-71 -34 -15 -63 -29 -65 -30 -1 0 7 -39 18 -86 22 -92 17 -132 -17 -145 -15
-6 -149 9 -199 23 -19 5 -26 -4 -54 -60 -31 -63 -102 -156 -120 -156 -13 0
-88 105 -117 165 -26 54 -29 56 -58 50 -95 -19 -184 -26 -204 -16 -18 10 -20
18 -15 59 4 26 15 72 24 102 10 30 18 55 17 56 -1 1 -30 16 -65 34 -35 19 -82
50 -105 70 -38 34 -41 39 -30 63 8 17 39 39 94 66 45 23 88 41 96 41 10 0 13
6 9 15 -14 38 -35 123 -37 150 -3 61 -7 58 99 52 53 -3 106 -9 117 -12 18 -5
25 2 45 47 14 29 47 79 74 112 l50 60 52 -58 c29 -31 65 -82 81 -112z m-2528
-245 c30 -11 31 -13 31 -70 0 -65 -7 -71 -48 -39 l-25 21 -34 -33 c-18 -17
-33 -35 -33 -39 0 -4 12 -22 27 -39 27 -32 44 -35 96 -15 14 6 17 1 17 -34 0
-31 -6 -46 -27 -66 -52 -47 -97 -28 -182 79 -28 35 -51 71 -51 80 0 8 33 49
73 91 77 80 92 86 156 64z m1285 -289 c50 -30 80 -93 80 -167 l0 -62 65 0 c37
0 77 -4 91 -9 34 -14 85 -53 111 -86 19 -24 20 -30 9 -57 -32 -77 -152 -139
-239 -125 l-38 6 5 -50 c6 -66 -32 -146 -88 -185 -36 -25 -42 -26 -71 -15 -63
27 -132 158 -115 224 5 22 4 23 -43 18 -29 -2 -70 2 -102 12 -88 26 -119 63
-119 139 0 39 5 49 35 76 47 41 134 66 185 53 l38 -9 -1 71 c-2 66 0 75 31
116 53 72 105 88 166 50z m-657 -234 l-139 -134 124 -118 c211 -203 378 -368
378 -374 0 -3 -32 -3 -70 -2 l-71 4 -92 86 c-51 47 -149 141 -218 209 l-125
124 -20 -22 c-10 -12 -63 -62 -117 -111 -95 -88 -98 -90 -126 -78 -16 6 -37
20 -45 29 -15 17 -6 28 136 162 84 79 203 192 264 251 l112 108 73 -1 74 0
-138 -133z"/>
<path d="M1760 5306 l0 -1316 285 0 285 0 0 389 0 389 313 4 c268 5 327 8 419
27 169 34 276 79 390 163 243 179 359 434 345 758 -11 249 -93 447 -255 613
-122 126 -272 208 -460 254 l-107 27 -607 3 -608 4 0 -1315z m1160 819 c134
-42 235 -127 293 -245 30 -61 32 -71 32 -180 0 -103 -3 -121 -26 -170 -42 -89
-117 -163 -217 -213 l-85 -42 -294 -3 -293 -3 0 434 c0 339 3 437 13 441 6 3
127 4 267 2 207 -3 265 -7 310 -21z"/>
<path d="M2440 5704 l0 -336 223 4 c219 3 223 3 283 31 141 65 221 212 194
355 -24 127 -105 217 -238 263 -47 16 -85 19 -259 19 l-203 0 0 -336z"/>
<path d="M2735 7170 c-42 -46 -7 -120 56 -120 62 0 96 90 47 124 -31 22 -81
20 -103 -4z"/>
<path d="M953 5559 c-22 -33 -28 -56 -31 -109 l-4 -67 -70 -6 c-77 -7 -161
-41 -166 -68 -4 -23 89 -68 171 -82 l64 -11 6 -63 c7 -67 23 -107 56 -137 21
-19 22 -19 46 4 37 34 55 82 55 144 l0 56 33 0 c52 0 148 28 190 56 38 25 38
26 21 46 -28 30 -82 49 -160 55 l-71 6 -6 65 c-4 50 -12 74 -34 106 -40 57
-65 58 -100 5z m110 -190 c32 -40 21 -101 -24 -124 -40 -21 -57 -19 -90 14
-38 39 -38 74 1 113 26 25 36 29 63 24 18 -3 40 -16 50 -27z"/>
<path d="M4553 5578 c-33 -36 -50 -79 -58 -139 l-7 -56 -67 -5 c-67 -5 -181
-46 -181 -66 0 -29 98 -75 185 -87 85 -12 82 -9 87 -84 3 -53 9 -77 31 -110
15 -22 33 -41 40 -41 6 0 25 19 42 43 25 35 30 53 33 113 l4 72 52 6 c66 8
138 34 172 61 l27 22 -21 21 c-27 27 -112 52 -179 52 l-53 0 0 68 c0 61 -4 74
-30 110 -34 48 -48 51 -77 20z m62 -188 c15 -6 32 -24 40 -45 19 -43 6 -76
-39 -100 -30 -16 -34 -16 -64 -1 -59 30 -68 81 -23 127 32 31 45 34 86 19z"/>
<path d="M3963 4452 c-17 -37 -34 -84 -37 -104 -7 -37 -19 -48 -31 -28 -12 20
-65 40 -125 48 -33 5 -60 7 -60 5 0 -11 47 -94 75 -134 l33 -46 -52 -6 c-55
-5 -168 -48 -174 -65 -5 -15 115 -71 169 -78 27 -4 49 -8 49 -9 0 -2 -15 -26
-34 -54 -33 -48 -62 -118 -54 -126 9 -9 149 34 177 54 l30 22 6 -38 c7 -43 53
-161 66 -169 11 -6 53 77 69 136 7 25 14 51 16 57 2 9 14 5 39 -11 32 -22 172
-63 182 -53 7 8 -35 93 -66 131 -17 21 -31 40 -31 42 0 1 35 14 78 29 42 14
92 34 110 44 l34 17 -25 17 c-37 24 -142 57 -182 57 l-36 0 25 33 c14 18 37
59 51 91 l26 59 -52 -6 c-28 -4 -70 -15 -93 -27 -23 -11 -47 -20 -53 -20 -6 0
-13 18 -17 41 -7 45 -46 128 -69 147 -12 10 -19 0 -44 -56z m106 -278 c55 -70
-14 -149 -105 -120 -23 7 -44 45 -44 78 0 65 108 95 149 42z"/>
<path d="M2792 3654 c-32 -22 -30 -76 4 -103 15 -12 34 -21 44 -21 10 0 29 9
44 21 71 55 -18 155 -92 103z"/>
<path d="M7661 6559 c-267 -41 -481 -228 -545 -475 -21 -81 -21 -260 -1 -339
60 -232 236 -399 490 -466 103 -28 307 -30 407 -6 248 61 433 235 492 464 20
77 20 228 0 313 -56 241 -260 446 -493 496 -87 19 -270 25 -350 13z m297 -214
c69 -21 160 -84 204 -143 21 -27 50 -80 65 -118 23 -60 27 -83 27 -179 0 -149
-28 -220 -123 -316 -88 -88 -146 -111 -297 -117 -98 -4 -118 -1 -182 21 -87
30 -161 84 -207 152 -153 222 -84 563 138 676 98 50 252 60 375 24z"/>
<path d="M10390 6550 l-535 -5 0 -113 c0 -63 4 -116 8 -119 5 -3 25 7 46 21
36 25 41 26 199 26 l162 0 1 -262 c0 -145 0 -371 -1 -503 l-1 -240 -34 -33
c-20 -19 -33 -38 -30 -43 9 -14 395 -12 395 3 0 7 -12 25 -27 40 l-27 29 -1
502 0 502 155 0 c145 0 157 -1 183 -22 50 -39 57 -25 57 108 0 65 -3 118 -7
117 -5 -2 -249 -5 -543 -8z"/>
<path d="M13600 6433 c0 -89 3 -123 12 -123 7 0 28 11 48 25 36 25 39 25 211
23 l174 -3 3 -494 2 -494 -40 -38 c-22 -21 -40 -43 -40 -49 0 -11 382 -15 394
-3 3 4 -8 22 -26 40 l-33 34 -3 505 -3 504 189 0 c184 0 189 -1 221 -24 55
-40 61 -30 61 103 l0 116 -585 0 -585 0 0 -122z"/>
<path d="M5943 6542 c-30 -5 -29 -8 12 -53 l35 -39 0 -545 0 -545 -35 -38
c-19 -22 -32 -42 -28 -46 10 -9 361 -7 367 3 3 5 -1 15 -10 22 -39 33 -44 61
-44 277 l0 210 203 5 c154 3 215 9 257 22 131 41 213 103 257 193 24 50 28 69
28 147 0 78 -4 98 -29 153 -31 67 -109 148 -175 181 -96 49 -127 53 -481 55
-184 1 -345 1 -357 -2z m656 -193 c95 -22 146 -91 139 -190 -5 -72 -37 -121
-98 -152 -41 -20 -63 -22 -222 -25 l-178 -4 0 191 0 191 158 0 c86 0 177 -5
201 -11z"/>
<path d="M8506 6541 c-4 -5 -2 -12 4 -16 5 -3 45 -50 88 -103 72 -90 128 -162
350 -455 l82 -108 0 -259 0 -259 -31 -24 c-18 -14 -29 -29 -25 -36 9 -14 352
-16 360 -2 4 5 -5 23 -19 39 l-25 30 0 256 0 257 215 284 c118 156 233 305
255 330 22 25 40 50 40 54 0 16 -43 20 -209 18 -182 -2 -176 0 -156 -62 4 -15
-26 -62 -130 -200 -75 -99 -139 -183 -144 -188 -4 -4 -52 53 -106 125 -180
240 -205 277 -202 300 2 23 2 23 -170 26 -101 1 -174 -1 -177 -7z"/>
<path d="M11374 6539 c-3 -5 4 -22 16 -38 l20 -30 -21 -53 c-11 -29 -43 -105
-71 -168 -52 -119 -296 -705 -342 -820 -18 -45 -39 -76 -67 -101 -24 -21 -39
-42 -35 -48 9 -14 356 -16 356 -2 0 5 -12 23 -26 41 l-26 31 53 132 54 132
269 0 269 0 48 -120 c27 -66 48 -127 49 -136 0 -8 -13 -28 -30 -44 -16 -15
-27 -32 -24 -36 3 -5 180 -9 395 -9 426 0 424 0 380 56 -11 14 -18 31 -15 38
20 36 249 376 255 376 10 0 269 -376 269 -390 0 -6 -9 -23 -20 -37 -11 -14
-17 -29 -14 -34 8 -14 444 -11 444 3 0 6 -18 27 -40 46 -48 40 -460 577 -460
599 0 12 338 462 427 567 24 29 30 42 21 48 -23 14 -362 10 -382 -5 -16 -12
-16 -14 -2 -26 27 -23 17 -53 -49 -146 -35 -49 -92 -129 -125 -178 l-61 -87
-91 127 c-174 247 -164 230 -144 264 34 57 27 59 -192 59 -152 0 -203 -3 -217
-14 -18 -13 -18 -14 2 -24 32 -17 122 -129 406 -500 l78 -103 -52 -67 c-28
-37 -119 -157 -201 -267 -208 -280 -205 -277 -227 -264 -30 19 -61 73 -123
216 -119 274 -238 553 -238 557 0 3 -39 92 -86 198 -83 186 -85 194 -71 220
12 21 13 29 3 37 -15 13 -354 12 -362 0z m291 -501 c52 -130 95 -242 95 -248
0 -12 -396 -15 -403 -2 -2 4 40 117 94 252 54 135 99 247 99 250 0 22 34 -51
115 -252z"/>
<path d="M11931 4824 c-112 -25 -171 -109 -171 -245 0 -77 37 -149 98 -192 47
-32 48 -32 167 -32 96 0 126 4 153 18 l32 18 0 115 0 115 -107 -3 -108 -3 0
-35 c0 -35 0 -35 50 -40 50 -5 50 -5 53 -44 2 -24 -2 -42 -10 -47 -23 -15
-102 -10 -138 9 -90 47 -95 209 -8 262 40 24 139 27 182 5 41 -22 53 -19 65
17 9 25 8 35 -4 48 -34 37 -164 55 -254 34z"/>
<path d="M8610 4591 l0 -241 60 0 60 0 0 90 0 90 68 0 c76 0 132 22 172 65 20
22 25 37 24 80 0 68 -15 96 -68 126 -37 21 -56 24 -178 27 l-138 4 0 -241z
m238 133 c28 -19 29 -65 1 -90 -14 -12 -36 -18 -71 -19 l-50 0 0 50 c0 28 0
56 1 63 1 18 92 15 119 -4z"/>
<path d="M9240 4798 c-7 -18 -51 -121 -97 -229 -45 -108 -83 -201 -83 -207 0
-13 88 -17 106 -4 6 4 19 29 29 55 l18 48 105 -3 105 -3 20 -52 20 -53 63 0
c35 0 64 4 64 8 0 5 -44 112 -98 238 l-99 229 -70 3 -70 3 -13 -33z m113 -160
l35 -88 -69 0 c-38 0 -69 2 -69 4 0 2 14 36 30 76 17 40 30 80 30 88 0 24 5
14 43 -80z"/>
<path d="M9720 4591 l0 -241 55 0 55 0 0 90 0 90 38 0 c36 0 39 -3 94 -90 l57
-90 61 0 c39 0 60 4 60 12 0 6 -27 51 -60 99 l-61 88 31 16 c44 23 62 57 62
117 -1 59 -20 92 -73 123 -29 17 -56 21 -176 23 l-143 4 0 -241z m250 129 c11
-11 20 -29 20 -40 0 -39 -35 -60 -100 -60 l-60 0 0 60 0 60 60 0 c47 0 64 -4
80 -20z"/>
<path d="M10317 4823 c-4 -3 -7 -111 -7 -240 l0 -233 60 0 60 0 0 79 c0 62 4
84 18 101 10 13 24 20 30 16 6 -3 41 -49 77 -101 l66 -95 75 0 c47 0 73 4 69
10 -3 5 -49 66 -101 135 -52 70 -94 129 -94 134 0 4 38 48 85 98 47 50 85 94
85 97 0 3 -29 6 -64 6 l-65 0 -88 -102 -88 -103 -3 103 -3 102 -53 0 c-29 0
-56 -3 -59 -7z"/>
<path d="M10884 4817 c-2 -7 -3 -114 -2 -237 l3 -225 58 -3 57 -3 0 241 0 240
-55 0 c-36 0 -57 -5 -61 -13z"/>
<path d="M11178 4823 c-2 -5 -4 -111 -4 -238 l1 -230 48 0 49 0 -1 158 c-1 86
0 157 2 157 3 0 53 -72 111 -160 l107 -161 62 3 62 3 -2 235 -2 235 -50 3 -50
3 -3 -148 -3 -148 -64 95 c-36 52 -82 119 -103 148 l-39 52 -59 0 c-32 0 -60
-3 -62 -7z"/>
<path d="M6053 4622 c-72 -3 -92 -19 -75 -57 l12 -25 1033 0 c790 0 1036 3
1045 12 18 18 15 55 -5 64 -16 8 -1860 13 -2010 6z"/>
<path d="M12690 4621 c-20 -6 -25 -13 -25 -41 l0 -35 1075 0 1075 0 3 31 c2
23 -2 34 -15 39 -23 10 -2079 15 -2113 6z"/>
</g>
</svg>
