<?xml version="1.0" encoding="UTF-8" standalone="no"?>
<!DOCTYPE svg PUBLIC "-//W3C//DTD SVG 1.1//EN" "http://www.w3.org/Graphics/SVG/1.1/DTD/svg11.dtd">
<svg width="100%" height="100%" viewBox="0 0 1223 151" version="1.1" xmlns="http://www.w3.org/2000/svg" xmlns:xlink="http://www.w3.org/1999/xlink" xml:space="preserve" xmlns:serif="http://www.serif.com/" style="fill-rule:evenodd;clip-rule:evenodd;stroke-linejoin:round;stroke-miterlimit:2;">
    <g id="Layer_2" transform="matrix(4.166667,0,0,4.166667,0,0)">
        <g id="Layer_1-2">
            <g id="Layer_2-2">
                <g>
                    <path d="M69.9,1.1L69.9,23.2C69.9,30.332 64.032,36.2 56.9,36.2C49.768,36.2 43.9,30.332 43.9,23.2L43.9,1.1L49.7,1.1L49.7,23.2C49.7,27.095 52.905,30.3 56.8,30.3C60.695,30.3 63.9,27.095 63.9,23.2L63.9,1.1L69.9,1.1Z" style="fill:white;fill-rule:nonzero;"/>
                    <path d="M102.7,1.1L102.7,36.2L80.8,14.8L80.8,36.1L75,36.1L75,0.9L96.9,22.3L96.9,1.1L102.7,1.1Z" style="fill:white;fill-rule:nonzero;"/>
                    <rect x="107.8" y="1.1" width="5.8" height="35" style="fill:white;fill-rule:nonzero;"/>
                    <path d="M148.3,31.2C145.045,34.31 140.712,36.047 136.21,36.047C126.61,36.047 118.71,28.148 118.71,18.547C118.71,8.947 126.61,1.047 136.21,1.047C140.665,1.047 144.955,2.748 148.2,5.8L144.2,10C139.626,5.66 132.311,5.795 127.9,10.3C125.742,12.484 124.53,15.433 124.53,18.504C124.53,24.906 129.798,30.174 136.2,30.174C139.173,30.174 142.036,29.038 144.2,27L148.3,31.2Z" style="fill:white;fill-rule:nonzero;"/>
                    <path d="M185.9,18.6C185.878,28.163 178.003,36.02 168.44,36.02C158.862,36.02 150.98,28.138 150.98,18.56C150.98,8.982 158.862,1.1 168.44,1.1C178.003,1.1 185.878,8.957 185.9,18.52L185.9,18.6ZM180.1,18.6C180.1,12.182 174.818,6.9 168.4,6.9C161.982,6.9 156.7,12.182 156.7,18.6C156.7,25.018 161.982,30.3 168.4,30.3C174.788,30.22 180.02,24.988 180.1,18.6Z" style="fill:white;fill-rule:nonzero;"/>
                    <path d="M218.7,1.1L218.7,36.2L196.8,14.8L196.8,36.1L191,36.1L191,0.9L212.9,22.3L212.9,1.1L218.7,1.1Z" style="fill:white;fill-rule:nonzero;"/>
                    <path d="M223.8,32.6C223.8,30.735 225.335,29.2 227.2,29.2C229.065,29.2 230.6,30.735 230.6,32.6C230.6,34.465 229.065,36 227.2,36C227.19,36 227.18,36 227.17,36C225.332,36 223.816,34.497 223.8,32.66L223.8,32.6Z" style="fill:white;fill-rule:nonzero;"/>
                    <path d="M261.6,1.1L261.6,23.2C261.6,30.332 255.732,36.2 248.6,36.2C241.468,36.2 235.6,30.332 235.6,23.2L235.6,1.1L241.4,1.1L241.4,23.2C241.4,27.095 244.605,30.3 248.5,30.3C252.395,30.3 255.6,27.095 255.6,23.2L255.6,1.1L261.6,1.1Z" style="fill:white;fill-rule:nonzero;"/>
                    <path d="M293.5,30.2L293.5,36L266.6,36L283.1,6.8L267.2,6.8L267.2,1L293.1,1L276.6,30.2L293.5,30.2Z" style="fill:white;fill-rule:nonzero;"/>
                    <path d="M42.1,36.1L34.7,36.1L17.2,6.3L20.9,0L42.1,36.1Z" style="fill:white;fill-rule:nonzero;"/>
                    <path d="M33.4,36.1L0,36.1L16.6,7.4L33.4,36.1Z" style="fill:white;fill-rule:nonzero;"/>
                </g>
            </g>
        </g>
    </g>
</svg>
