<svg width="160" height="160" viewBox="0 0 160 160" fill="none" xmlns="http://www.w3.org/2000/svg">
<g clip-path="url(#clip0_0_368)">
<rect width="160" height="160" rx="15" fill="#1173FC"/>
<path d="M139.232 128.189C140.483 122.214 143.328 117.434 147.767 113.85C152.262 110.265 157.923 108.473 164.751 108.473C168.393 108.473 171.466 108.985 173.969 110.009C176.473 110.976 178.208 112.171 179.176 113.594C180.2 114.959 180.939 116.296 181.395 117.605C181.85 118.914 182.077 120.023 182.077 120.934C182.077 121.048 182.077 121.161 182.077 121.275L181.992 122.812H169.275C169.275 122.698 169.246 122.555 169.19 122.385C169.19 122.157 169.076 121.787 168.848 121.275C168.621 120.763 168.279 120.336 167.824 119.995C167.426 119.597 166.771 119.255 165.861 118.971C165.007 118.629 163.955 118.459 162.703 118.459C157.013 118.459 153.485 121.702 152.119 128.189C151.835 129.611 151.693 130.891 151.693 132.029C151.693 136.411 153.94 138.601 158.435 138.601C160.37 138.601 162.049 138.118 163.471 137.15C164.95 136.183 165.946 135.216 166.458 134.248L167.226 132.712H179.858C179.745 133.167 179.545 133.765 179.261 134.504C178.976 135.187 178.208 136.439 176.956 138.26C175.762 140.081 174.367 141.702 172.774 143.125C171.238 144.49 168.99 145.742 166.032 146.88C163.13 148.018 159.915 148.587 156.387 148.587C149.502 148.587 144.808 147.051 142.304 143.978C139.801 140.906 138.549 137.492 138.549 133.736C138.549 132.029 138.776 130.18 139.232 128.189Z" fill="#F9F9F9"/>
<path d="M93.5136 147.734L101.707 109.326H113.912L112.973 113.935C116.16 110.35 120.257 108.53 125.264 108.473C125.435 108.473 125.634 108.473 125.861 108.473C129.218 108.473 131.978 108.956 134.14 109.924C136.359 110.891 137.867 112.285 138.664 114.106C139.517 115.87 139.973 117.434 140.03 118.8C140.086 120.109 140.115 120.905 140.115 121.19C140.115 123.352 139.802 125.657 139.176 128.103L134.994 147.734H122.191L126.373 128.103C126.715 126.567 126.886 125.23 126.886 124.092C126.886 120.393 125.207 118.516 121.85 118.459C121.793 118.459 121.708 118.459 121.594 118.459C118.294 118.459 115.705 119.597 113.827 121.873C112.006 124.092 110.697 127.079 109.901 130.834L106.231 147.734H93.5136Z" fill="#F9F9F9"/>
<path d="M51.7199 152.684H58.9747C60.511 152.684 61.6206 152.485 62.3034 152.086C63.0431 151.688 63.8112 150.863 64.6078 149.611L65.8027 147.563L57.7798 109.326H71.0091L74.3378 132.968L88.2499 109.326H101.479L76.4715 149.611C74.7645 152.456 73.4274 154.562 72.4601 155.927C71.4928 157.293 70.2409 158.63 68.7046 159.939C67.1683 161.304 65.4613 162.215 63.5836 162.67C61.7628 163.125 59.4584 163.353 56.6703 163.353H49.5008L51.7199 152.684Z" fill="#F9F9F9"/>
<path d="M6.1707 130.322H19.5707C19.5138 130.493 19.4569 130.692 19.4 130.92C19.4 131.09 19.4 131.204 19.4 131.261C19.4 131.603 19.4853 132.172 19.656 132.968C19.8836 133.765 20.2535 134.476 20.7656 135.102C21.3346 135.728 22.3304 136.325 23.7529 136.894C25.2323 137.406 27.0531 137.662 29.2153 137.662C35.7588 137.662 39.4004 135.955 40.1401 132.541C40.197 132.257 40.2255 131.972 40.2255 131.688C40.2255 130.208 39.2866 128.9 37.4089 127.762C35.5312 126.624 33.056 125.656 29.9834 124.86C26.9108 124.063 23.8667 123.153 20.851 122.129C17.8352 121.048 15.5592 119.54 14.0229 117.605C12.5435 115.67 11.8038 113.651 11.8038 111.545C11.8038 110.578 11.9176 109.554 12.1452 108.473C13.3401 103.238 16.242 99.1979 20.851 96.3529C25.5168 93.451 31.2921 92 38.1771 92C42.2739 92 45.7163 92.569 48.5044 93.707C51.2926 94.7881 53.2556 96.0968 54.3936 97.6331C55.5316 99.1694 56.3282 100.677 56.7834 102.157C57.2386 103.636 57.4662 104.888 57.4662 105.912C57.4662 106.026 57.4378 106.396 57.3809 107.022C57.3809 107.648 57.3524 107.961 57.2955 107.961H43.8102V107.448C43.8102 107.221 43.6679 106.823 43.3834 106.254C43.1558 105.628 42.8144 105.115 42.3592 104.717C41.904 104.262 41.1359 103.864 40.0548 103.522C38.9737 103.124 37.665 102.925 36.1287 102.925C33.056 102.925 30.5809 103.408 28.7032 104.376C26.8255 105.286 25.7444 106.51 25.4599 108.046C25.403 108.217 25.3745 108.416 25.3745 108.643C25.3745 109.781 26.0573 110.806 27.4229 111.716C28.8454 112.569 30.7231 113.224 33.056 113.679C35.4459 114.134 37.9779 114.789 40.6522 115.642C43.3265 116.496 45.7448 117.491 47.907 118.629C50.1261 119.71 51.6909 121.218 52.6013 123.153C53.5117 125.087 53.9669 126.994 53.9669 128.871C53.9669 130.009 53.8246 131.204 53.5401 132.456C52.459 137.577 49.5856 141.56 44.9197 144.405C40.3108 147.193 34.3363 148.587 26.9962 148.587C16.3558 148.587 9.72696 144.974 7.10955 137.748C6.36985 135.756 6 133.879 6 132.115C6 131.489 6.0569 130.891 6.1707 130.322Z" fill="#F9F9F9"/>
</g>
<defs>
<clipPath id="clip0_0_368">
<rect width="160" height="160" rx="15" fill="white"/>
</clipPath>
</defs>
</svg>
