<svg width="32" height="33" viewBox="0 0 32 33" fill="none" xmlns="http://www.w3.org/2000/svg">
<path d="M10.0018 8.49986C9.60621 8.49986 9.21953 8.61716 8.89064 8.83692C8.56174 9.05668 8.30539 9.36904 8.15402 9.73449C8.00264 10.0999 7.96304 10.5021 8.04021 10.89C8.11738 11.278 8.30786 11.6344 8.58756 11.9141C8.86727 12.1938 9.22363 12.3843 9.6116 12.4614C9.99956 12.5386 10.4017 12.499 10.7671 12.3476C11.1326 12.1962 11.445 11.9399 11.6647 11.611C11.8845 11.2821 12.0018 10.8954 12.0018 10.4999C12.0018 9.96943 11.7911 9.46072 11.416 9.08564C11.0409 8.71057 10.5322 8.49986 10.0018 8.49986ZM28.1618 14.7799L16.9484 3.55319C16.8239 3.42962 16.6761 3.33185 16.5137 3.2655C16.3512 3.19915 16.1773 3.16551 16.0018 3.16653H4.00178C3.64816 3.16653 3.30902 3.307 3.05897 3.55705C2.80892 3.8071 2.66844 4.14624 2.66844 4.49986V16.4999C2.66743 16.6753 2.70106 16.8493 2.76742 17.0117C2.83377 17.1742 2.93154 17.3219 3.05511 17.4465L14.2818 28.6599C15.0318 29.4089 16.0484 29.8297 17.1084 29.8297C18.1684 29.8297 19.1851 29.4089 19.9351 28.6599L28.1618 20.4999C28.9108 19.7499 29.3316 18.7332 29.3316 17.6732C29.3316 16.6132 28.9108 15.5965 28.1618 14.8465V14.7799ZM26.2818 18.5399L18.0418 26.7665C17.792 27.0149 17.454 27.1542 17.1018 27.1542C16.7495 27.1542 16.4116 27.0149 16.1618 26.7665L5.33511 15.9532V5.83319H15.4551L26.2818 16.6599C26.4053 16.7844 26.5031 16.9322 26.5695 17.0946C26.6358 17.2571 26.6695 17.431 26.6684 17.6065C26.667 17.9563 26.5281 18.2915 26.2818 18.5399Z" fill="#1173FC"/>
</svg>
