<svg width="32" height="33" viewBox="0 0 32 33" fill="none" xmlns="http://www.w3.org/2000/svg">
<path d="M19.4666 7.16683C20.9333 7.16683 22.1333 5.96683 22.1333 4.50016C22.1333 3.0335 20.9333 1.8335 19.4666 1.8335C18 1.8335 16.8 3.0335 16.8 4.50016C16.8 5.96683 18 7.16683 19.4666 7.16683ZM14.6666 25.7002L16 19.8335L18.8 22.5002V30.5002H21.4666V20.5002L18.6666 17.8335L19.4666 13.8335C21.2 15.8335 23.8666 17.1668 26.8 17.1668V14.5002C24.2666 14.5002 22.1333 13.1668 21.0666 11.3002L19.7333 9.16683C19.2 8.36683 18.4 7.8335 17.4666 7.8335C17.0666 7.8335 16.8 7.96683 16.4 7.96683L9.46665 10.9002V17.1668H12.1333V12.6335L14.5333 11.7002L12.4 22.5002L5.86665 21.1668L5.33331 23.8335L14.6666 25.7002Z" fill="#1173FC"/>
</svg>
