<svg width="32" height="33" viewBox="0 0 32 33" fill="none" xmlns="http://www.w3.org/2000/svg">
<path d="M16 3.16675C13.3629 3.16675 10.7851 3.94873 8.5924 5.41382C6.39975 6.8789 4.69078 8.96129 3.68161 11.3976C2.67245 13.834 2.4084 16.5149 2.92287 19.1013C3.43734 21.6877 4.70722 24.0635 6.57192 25.9282C8.43662 27.7929 10.8124 29.0627 13.3988 29.5772C15.9852 30.0917 18.6661 29.8276 21.1025 28.8185C23.5388 27.8093 25.6212 26.1003 27.0863 23.9077C28.5513 21.715 29.3333 19.1372 29.3333 16.5001C29.3333 14.7491 28.9885 13.0153 28.3184 11.3976C27.6483 9.77996 26.6662 8.3101 25.4281 7.07199C24.19 5.83388 22.7201 4.85175 21.1025 4.18169C19.4848 3.51162 17.751 3.16675 16 3.16675ZM16 27.1667C13.8903 27.1667 11.828 26.5412 10.0739 25.3691C8.3198 24.197 6.95263 22.5311 6.14529 20.582C5.33796 18.633 5.12672 16.4882 5.5383 14.4191C5.94987 12.35 6.96577 10.4494 8.45753 8.95761C9.94929 7.46585 11.8499 6.44995 13.919 6.03837C15.9882 5.6268 18.1329 5.83803 20.082 6.64537C22.031 7.4527 23.6969 8.81987 24.869 10.574C26.0411 12.3281 26.6667 14.3904 26.6667 16.5001C26.6667 19.3291 25.5429 22.0422 23.5425 24.0426C21.5421 26.0429 18.829 27.1667 16 27.1667ZM16 8.50008C15.6464 8.50008 15.3072 8.64056 15.0572 8.8906C14.8071 9.14065 14.6667 9.47979 14.6667 9.83341V15.7267L11.8667 17.3401C11.6098 17.4856 11.4085 17.7123 11.2944 17.9846C11.1802 18.2569 11.1597 18.5593 11.2359 18.8445C11.3122 19.1297 11.481 19.3816 11.7158 19.5605C11.9506 19.7395 12.2381 19.8355 12.5333 19.8334C12.7669 19.835 12.9968 19.7753 13.2 19.6601L16.6667 17.6601L16.7867 17.5401L17 17.3667C17.0521 17.3007 17.0969 17.2292 17.1333 17.1534C17.1768 17.0818 17.2125 17.0059 17.24 16.9267C17.2763 16.842 17.2988 16.7519 17.3067 16.6601L17.3333 16.5001V9.83341C17.3333 9.47979 17.1929 9.14065 16.9428 8.8906C16.6928 8.64056 16.3536 8.50008 16 8.50008Z" fill="#1173FC"/>
</svg>
