<svg width="32" height="32" viewBox="0 0 32 32" fill="none" xmlns="http://www.w3.org/2000/svg">
<path d="M21.3333 14.6665C23.5466 14.6665 25.32 12.8798 25.32 10.6665C25.32 8.45317 23.5466 6.6665 21.3333 6.6665C19.12 6.6665 17.3333 8.45317 17.3333 10.6665C17.3333 12.8798 19.12 14.6665 21.3333 14.6665ZM10.6666 14.6665C12.88 14.6665 14.6533 12.8798 14.6533 10.6665C14.6533 8.45317 12.88 6.6665 10.6666 6.6665C8.45331 6.6665 6.66665 8.45317 6.66665 10.6665C6.66665 12.8798 8.45331 14.6665 10.6666 14.6665ZM10.6666 17.3332C7.55998 17.3332 1.33331 18.8932 1.33331 21.9998V25.3332H20V21.9998C20 18.8932 13.7733 17.3332 10.6666 17.3332ZM21.3333 17.3332C20.9466 17.3332 20.5066 17.3598 20.04 17.3998C21.5866 18.5198 22.6666 20.0265 22.6666 21.9998V25.3332H30.6666V21.9998C30.6666 18.8932 24.44 17.3332 21.3333 17.3332Z" fill="#1173FC"/>
</svg>
