<svg width="147" height="39" viewBox="0 0 147 39" fill="none" xmlns="http://www.w3.org/2000/svg">
<path d="M138.366 26.7308C138.584 25.6112 139.159 24.6627 140.092 23.8851C141.025 23.0765 142.036 22.6722 143.124 22.6722C144.244 22.6722 145.084 23.0299 145.644 23.7452C146.203 24.4294 146.483 25.1447 146.483 25.8911C146.483 26.171 146.452 26.4509 146.39 26.7308C146.141 27.8194 145.535 28.7524 144.571 29.5299C143.607 30.3074 142.565 30.6962 141.445 30.6962C140.388 30.6962 139.595 30.3696 139.066 29.7165C138.537 29.0323 138.273 28.3325 138.273 27.6172C138.273 27.3373 138.304 27.0418 138.366 26.7308Z" fill="#F9F9F9"/>
<path d="M128.647 22.9522L133.499 0.466496H140.45L135.645 22.9522C135.583 23.201 135.551 23.4187 135.551 23.6053C135.551 23.8852 135.629 24.134 135.785 24.3517C135.94 24.5383 136.329 24.6316 136.951 24.6316H138.584L137.371 30.4629H135.738C132.379 30.4629 130.296 30.0897 129.487 29.3433C128.678 28.5658 128.274 27.4773 128.274 26.0778C128.274 25.1758 128.398 24.134 128.647 22.9522Z" fill="#F9F9F9"/>
<path d="M118.337 22.9522L123.189 0.466496H130.14L125.335 22.9522C125.273 23.201 125.242 23.4187 125.242 23.6053C125.242 23.8852 125.319 24.134 125.475 24.3517C125.63 24.5383 126.019 24.6316 126.641 24.6316H128.274L127.061 30.4629H125.428C122.069 30.4629 119.986 30.0897 119.177 29.3433C118.369 28.5658 117.964 27.4773 117.964 26.0778C117.964 25.1758 118.089 24.134 118.337 22.9522Z" fill="#F9F9F9"/>
<path d="M94.4367 24.4916C94.7166 23.1854 95.3386 22.0502 96.3027 21.0861C97.298 20.122 98.3865 19.4067 99.5683 18.9402C100.781 18.4426 102.134 18.0383 103.627 17.7273C105.151 17.4163 106.457 17.2297 107.546 17.1675C108.665 17.0742 109.754 16.9964 110.811 16.9342H111.184L111.278 16.5143C111.309 16.2966 111.34 16.0945 111.371 15.9079C111.34 15.317 111.075 14.866 110.578 14.555C110.111 14.2129 109.256 14.0419 108.012 14.0419C107.39 14.0419 106.83 14.1041 106.333 14.2285C105.866 14.3529 105.508 14.5084 105.26 14.695C105.011 14.8505 104.793 15.0215 104.607 15.2081C104.451 15.3636 104.358 15.5036 104.327 15.628L104.233 15.8146H97.2824C97.3446 15.628 97.4379 15.3792 97.5623 15.0682C97.6867 14.7572 98.0288 14.2129 98.5886 13.4354C99.1795 12.6579 99.8637 11.9737 100.641 11.3828C101.45 10.7919 102.601 10.2476 104.093 9.74999C105.586 9.25238 107.266 9.00358 109.132 9.00358C112.553 9.00358 114.932 9.59449 116.269 10.7763C117.607 11.927 118.275 13.2799 118.275 14.8349C118.275 15.3636 118.213 15.9234 118.089 16.5143L116.829 22.7189H116.782L116.736 23.0921C116.674 23.372 116.642 23.6053 116.642 23.7919C116.642 24.0096 116.689 24.2117 116.782 24.3983C116.876 24.5538 117.156 24.6316 117.622 24.6316H117.855L116.596 30.4629H116.363C114.341 30.4629 112.817 30.3074 111.791 29.9964C110.796 29.6543 110.127 29.0478 109.785 28.177C107.794 30.012 105.042 30.9294 101.528 30.9294C98.6664 30.9294 96.7381 30.4007 95.7429 29.3433C94.7788 28.2548 94.2968 27.1041 94.2968 25.8911C94.2968 25.4246 94.3434 24.9581 94.4367 24.4916ZM102.087 25.4713C102.554 25.7823 103.176 25.9533 103.953 25.9844C104.016 25.9844 104.078 25.9844 104.14 25.9844C105.384 25.9844 106.597 25.6579 107.779 25.0048C108.961 24.3517 109.738 23.372 110.111 22.0658H110.065L110.298 21.0395C109.303 21.1017 108.541 21.1639 108.012 21.2261C107.514 21.2572 106.799 21.3505 105.866 21.506C104.964 21.6615 104.264 21.8481 103.767 22.0658C103.269 22.2524 102.787 22.5478 102.321 22.9521C101.885 23.3254 101.605 23.7763 101.481 24.305C101.481 24.3983 101.481 24.4761 101.481 24.5383C101.481 24.9115 101.683 25.2225 102.087 25.4713Z" fill="#F9F9F9"/>
<path d="M72.8218 19.7799C73.5061 16.5143 75.0611 13.9019 77.4869 11.9426C79.9439 9.98324 83.0384 9.00358 86.7704 9.00358C88.7608 9.00358 90.4403 9.28348 91.8087 9.84329C93.1771 10.372 94.1257 11.0251 94.6544 11.8026C95.2142 12.549 95.6185 13.2799 95.8673 13.9952C96.1161 14.7105 96.2405 15.317 96.2405 15.8146C96.2405 15.8768 96.2405 15.939 96.2405 16.0012L96.1939 16.8409H89.2429C89.2429 16.7787 89.2274 16.701 89.1963 16.6076C89.1963 16.4832 89.1341 16.2811 89.0097 16.0012C88.8853 15.7213 88.6986 15.488 88.4498 15.3014C88.2321 15.0837 87.8745 14.8971 87.3769 14.7416C86.9104 14.555 86.335 14.4617 85.6508 14.4617C82.5407 14.4617 80.6125 16.2344 79.8661 19.7799C79.7106 20.5574 79.6329 21.2572 79.6329 21.8792C79.6329 24.2739 80.8613 25.4713 83.3183 25.4713C84.3757 25.4713 85.2931 25.2069 86.0707 24.6782C86.8793 24.1495 87.4235 23.6208 87.7034 23.0921L88.1233 22.2524H95.0276C94.9654 22.5012 94.8565 22.8277 94.701 23.2321C94.5455 23.6053 94.1257 24.2895 93.4415 25.2847C92.7884 26.2799 92.0264 27.1663 91.1556 27.9438C90.3159 28.6902 89.0874 29.3744 87.4702 29.9964C85.8841 30.6184 84.1269 30.9294 82.1986 30.9294C78.4355 30.9294 75.8697 30.0897 74.5013 28.4103C73.1329 26.7309 72.4486 24.8648 72.4486 22.8122C72.4486 21.8792 72.573 20.8684 72.8218 19.7799Z" fill="#F9F9F9"/>
<path d="M47.8326 30.4629L52.311 9.47009H58.9821L58.4689 11.9892C60.2105 10.0299 62.4498 9.03468 65.1866 9.00358C65.2799 9.00358 65.3888 9.00358 65.5132 9.00358C67.3481 9.00358 68.8565 9.26793 70.0383 9.79664C71.2512 10.3253 72.0754 11.0873 72.5108 12.0825C72.9773 13.0466 73.2261 13.9019 73.2572 14.6483C73.2883 15.3636 73.3039 15.799 73.3039 15.9545C73.3039 17.1364 73.1328 18.3959 72.7907 19.7332L70.5048 30.4629H63.5072L65.7931 19.7332C65.9797 18.8935 66.073 18.1627 66.073 17.5407C66.073 15.5191 65.1555 14.4928 63.3206 14.4617C63.2895 14.4617 63.2428 14.4617 63.1806 14.4617C61.3768 14.4617 59.9617 15.0837 58.9354 16.3277C57.9402 17.5407 57.2249 19.1734 56.7895 21.2261L54.7835 30.4629H47.8326Z" fill="#F9F9F9"/>
<path d="M24.9893 33.1686H28.9546C29.7943 33.1686 30.4007 33.0598 30.774 32.8421C31.1783 32.6244 31.5981 32.1734 32.0335 31.4892L32.6866 30.3696L28.3015 9.47006H35.5323L37.3517 22.3923L44.9558 9.47006H52.1866L38.518 31.4892C37.585 33.0442 36.8541 34.195 36.3254 34.9414C35.7967 35.6878 35.1125 36.4186 34.2728 37.134C33.433 37.8804 32.5 38.378 31.4737 38.6268C30.4785 38.8756 29.2189 39 27.695 39H23.7763L24.9893 33.1686Z" fill="#F9F9F9"/>
<path d="M0.0933015 20.9461H7.41747C7.38637 21.0394 7.35527 21.1483 7.32417 21.2727C7.32417 21.366 7.32417 21.4282 7.32417 21.4593C7.32417 21.6459 7.37082 21.9569 7.46412 22.3923C7.58852 22.8277 7.79067 23.2165 8.07058 23.5586C8.38158 23.9007 8.92584 24.2272 9.70335 24.5382C10.512 24.8181 11.5072 24.9581 12.689 24.9581C16.2656 24.9581 18.256 24.0251 18.6603 22.159C18.6914 22.0035 18.7069 21.848 18.7069 21.6925C18.7069 20.8839 18.1938 20.1686 17.1675 19.5466C16.1412 18.9246 14.7883 18.3959 13.1089 17.9605C11.4294 17.5251 9.76555 17.0275 8.11723 16.4677C6.4689 15.8767 5.22488 15.0526 4.38517 13.9952C3.57656 12.9377 3.17225 11.8337 3.17225 10.683C3.17225 10.1543 3.23445 9.59444 3.35885 9.00353C4.01196 6.14229 5.59809 3.93415 8.11723 2.37913C10.6675 0.793002 13.8242 -6.10352e-05 17.5873 -6.10352e-05C19.8266 -6.10352e-05 21.7081 0.310945 23.2321 0.932956C24.756 1.52387 25.829 2.23918 26.451 3.07889C27.073 3.9186 27.5084 4.74277 27.7572 5.55138C28.006 6.35999 28.1304 7.0442 28.1304 7.60401C28.1304 7.66621 28.1148 7.86836 28.0837 8.21047C28.0837 8.55258 28.0682 8.72363 28.0371 8.72363H20.6663V8.44372C20.6663 8.31932 20.5885 8.10162 20.433 7.79061C20.3086 7.44851 20.122 7.1686 19.8732 6.9509C19.6244 6.7021 19.2046 6.48439 18.6136 6.29779C18.0227 6.08009 17.3074 5.97123 16.4677 5.97123C14.7883 5.97123 13.4354 6.23559 12.4091 6.7643C11.3828 7.26191 10.7919 7.93057 10.6364 8.77028C10.6053 8.86358 10.5897 8.97243 10.5897 9.09683C10.5897 9.71884 10.9629 10.2787 11.7093 10.7763C12.4868 11.2428 13.5132 11.6004 14.7883 11.8492C16.0945 12.098 17.4785 12.4557 18.9402 12.9222C20.4019 13.3887 21.7237 13.933 22.9055 14.555C24.1184 15.1459 24.9737 15.97 25.4713 17.0275C25.9689 18.0849 26.2177 19.1267 26.2177 20.1531C26.2177 20.7751 26.14 21.4282 25.9845 22.1124C25.3935 24.9114 23.823 27.0885 21.2727 28.6435C18.7536 30.1674 15.488 30.9294 11.4761 30.9294C5.66029 30.9294 2.03708 28.9545 0.60646 25.0047C0.202153 23.9162 0 22.8899 0 21.9258C0 21.5837 0.0311005 21.2571 0.0933015 20.9461Z" fill="#F9F9F9"/>
</svg>
